solid green_parts_collision
   facet normal 1.000000e+000 0.000000e+000 0.000000e+000
      outer loop
         vertex 3.200000e-001 7.000000e-001 0.000000e+000
         vertex 3.200000e-001 8.000000e-001 0.000000e+000
         vertex 3.200000e-001 7.000000e-001 2.000000e-001
      endloop
   endfacet
   facet normal 1.000000e+000 0.000000e+000 0.000000e+000
      outer loop
         vertex 3.200000e-001 7.000000e-001 2.000000e-001
         vertex 3.200000e-001 8.000000e-001 0.000000e+000
         vertex 3.200000e-001 8.000000e-001 2.000000e-001
      endloop
   endfacet
   facet normal 0.000000e+000 0.000000e+000 -1.000000e+000
      outer loop
         vertex 9.000000e-002 7.000000e-001 0.000000e+000
         vertex 0.000000e+000 7.000000e-001 0.000000e+000
         vertex 0.000000e+000 8.000000e-001 0.000000e+000
      endloop
   endfacet
   facet normal 0.000000e+000 0.000000e+000 -1.000000e+000
      outer loop
         vertex 3.200000e-001 8.000000e-001 0.000000e+000
         vertex 3.200000e-001 7.000000e-001 0.000000e+000
         vertex 2.300000e-001 7.000000e-001 0.000000e+000
      endloop
   endfacet
   facet normal 0.000000e+000 0.000000e+000 -1.000000e+000
      outer loop
         vertex 2.300000e-001 2.278623e-016 0.000000e+000
         vertex 9.000000e-002 2.278623e-016 0.000000e+000
         vertex 2.300000e-001 7.000000e-001 0.000000e+000
      endloop
   endfacet
   facet normal 0.000000e+000 0.000000e+000 -1.000000e+000
      outer loop
         vertex 2.300000e-001 7.000000e-001 0.000000e+000
         vertex 9.000000e-002 2.278623e-016 0.000000e+000
         vertex 9.000000e-002 7.000000e-001 0.000000e+000
      endloop
   endfacet
   facet normal 0.000000e+000 0.000000e+000 -1.000000e+000
      outer loop
         vertex 2.300000e-001 7.000000e-001 0.000000e+000
         vertex 9.000000e-002 7.000000e-001 0.000000e+000
         vertex 3.200000e-001 8.000000e-001 0.000000e+000
      endloop
   endfacet
   facet normal 0.000000e+000 0.000000e+000 -1.000000e+000
      outer loop
         vertex 3.200000e-001 8.000000e-001 0.000000e+000
         vertex 9.000000e-002 7.000000e-001 0.000000e+000
         vertex 0.000000e+000 8.000000e-001 0.000000e+000
      endloop
   endfacet
   facet normal -1.000000e+000 0.000000e+000 0.000000e+000
      outer loop
         vertex 0.000000e+000 7.000000e-001 2.000000e-001
         vertex 0.000000e+000 8.000000e-001 2.000000e-001
         vertex 0.000000e+000 7.000000e-001 0.000000e+000
      endloop
   endfacet
   facet normal -1.000000e+000 0.000000e+000 0.000000e+000
      outer loop
         vertex 0.000000e+000 7.000000e-001 0.000000e+000
         vertex 0.000000e+000 8.000000e-001 2.000000e-001
         vertex 0.000000e+000 8.000000e-001 0.000000e+000
      endloop
   endfacet
   facet normal 0.000000e+000 0.000000e+000 1.000000e+000
      outer loop
         vertex 0.000000e+000 8.000000e-001 2.000000e-001
         vertex 0.000000e+000 7.000000e-001 2.000000e-001
         vertex 3.200000e-001 8.000000e-001 2.000000e-001
      endloop
   endfacet
   facet normal 0.000000e+000 0.000000e+000 1.000000e+000
      outer loop
         vertex 3.200000e-001 8.000000e-001 2.000000e-001
         vertex 0.000000e+000 7.000000e-001 2.000000e-001
         vertex 9.000000e-002 7.000000e-001 2.000000e-001
      endloop
   endfacet
   facet normal 0.000000e+000 0.000000e+000 1.000000e+000
      outer loop
         vertex 3.200000e-001 7.000000e-001 2.000000e-001
         vertex 3.200000e-001 8.000000e-001 2.000000e-001
         vertex 2.300000e-001 7.000000e-001 2.000000e-001
      endloop
   endfacet
   facet normal 0.000000e+000 0.000000e+000 1.000000e+000
      outer loop
         vertex 2.300000e-001 7.000000e-001 2.000000e-001
         vertex 3.200000e-001 8.000000e-001 2.000000e-001
         vertex 9.000000e-002 7.000000e-001 2.000000e-001
      endloop
   endfacet
   facet normal 0.000000e+000 0.000000e+000 1.000000e+000
      outer loop
         vertex 2.300000e-001 7.000000e-001 2.000000e-001
         vertex 9.000000e-002 7.000000e-001 2.000000e-001
         vertex 2.300000e-001 2.278623e-016 2.000000e-001
      endloop
   endfacet
   facet normal 0.000000e+000 0.000000e+000 1.000000e+000
      outer loop
         vertex 2.300000e-001 2.278623e-016 2.000000e-001
         vertex 9.000000e-002 7.000000e-001 2.000000e-001
         vertex 9.000000e-002 2.278623e-016 2.000000e-001
      endloop
   endfacet
   facet normal 0.000000e+000 1.000000e+000 0.000000e+000
      outer loop
         vertex 0.000000e+000 8.000000e-001 0.000000e+000
         vertex 0.000000e+000 8.000000e-001 2.000000e-001
         vertex 3.200000e-001 8.000000e-001 0.000000e+000
      endloop
   endfacet
   facet normal 0.000000e+000 1.000000e+000 0.000000e+000
      outer loop
         vertex 3.200000e-001 8.000000e-001 0.000000e+000
         vertex 0.000000e+000 8.000000e-001 2.000000e-001
         vertex 3.200000e-001 8.000000e-001 2.000000e-001
      endloop
   endfacet
   facet normal 0.000000e+000 -1.000000e+000 0.000000e+000
      outer loop
         vertex 2.300000e-001 1.102182e-017 0.000000e+000
         vertex 2.300000e-001 1.102182e-017 2.000000e-001
         vertex 9.000000e-002 1.102182e-017 0.000000e+000
      endloop
   endfacet
   facet normal 0.000000e+000 -1.000000e+000 0.000000e+000
      outer loop
         vertex 9.000000e-002 1.102182e-017 0.000000e+000
         vertex 2.300000e-001 1.102182e-017 2.000000e-001
         vertex 9.000000e-002 1.102182e-017 2.000000e-001
      endloop
   endfacet
   facet normal 0.000000e+000 -1.000000e+000 0.000000e+000
      outer loop
         vertex 2.300000e-001 7.000000e-001 2.000000e-001
         vertex 2.300000e-001 7.000000e-001 0.000000e+000
         vertex 3.200000e-001 7.000000e-001 2.000000e-001
      endloop
   endfacet
   facet normal 0.000000e+000 -1.000000e+000 0.000000e+000
      outer loop
         vertex 3.200000e-001 7.000000e-001 2.000000e-001
         vertex 2.300000e-001 7.000000e-001 0.000000e+000
         vertex 3.200000e-001 7.000000e-001 0.000000e+000
      endloop
   endfacet
   facet normal 1.000000e+000 0.000000e+000 0.000000e+000
      outer loop
         vertex 2.300000e-001 1.102182e-017 2.000000e-001
         vertex 2.300000e-001 0.000000e+000 0.000000e+000
         vertex 2.300000e-001 7.000000e-001 2.000000e-001
      endloop
   endfacet
   facet normal 1.000000e+000 0.000000e+000 0.000000e+000
      outer loop
         vertex 2.300000e-001 7.000000e-001 2.000000e-001
         vertex 2.300000e-001 0.000000e+000 0.000000e+000
         vertex 2.300000e-001 7.000000e-001 0.000000e+000
      endloop
   endfacet
   facet normal 0.000000e+000 -1.000000e+000 0.000000e+000
      outer loop
         vertex 0.000000e+000 7.000000e-001 2.000000e-001
         vertex 0.000000e+000 7.000000e-001 0.000000e+000
         vertex 9.000000e-002 7.000000e-001 2.000000e-001
      endloop
   endfacet
   facet normal 0.000000e+000 -1.000000e+000 0.000000e+000
      outer loop
         vertex 9.000000e-002 7.000000e-001 2.000000e-001
         vertex 0.000000e+000 7.000000e-001 0.000000e+000
         vertex 9.000000e-002 7.000000e-001 0.000000e+000
      endloop
   endfacet
   facet normal -1.000000e+000 0.000000e+000 0.000000e+000
      outer loop
         vertex 9.000000e-002 7.000000e-001 2.000000e-001
         vertex 9.000000e-002 7.000000e-001 0.000000e+000
         vertex 9.000000e-002 2.204364e-017 2.000000e-001
      endloop
   endfacet
   facet normal -1.000000e+000 0.000000e+000 0.000000e+000
      outer loop
         vertex 9.000000e-002 2.204364e-017 2.000000e-001
         vertex 9.000000e-002 7.000000e-001 0.000000e+000
         vertex 9.000000e-002 1.102182e-017 0.000000e+000
      endloop
   endfacet
endsolid