solid item_profile_collision
   facet normal 1.000000e+000 0.000000e+000 0.000000e+000
      outer loop
         vertex 7.000000e+002 3.000000e+002 0.000000e+000
         vertex 7.000000e+002 5.500000e+002 0.000000e+000
         vertex 7.000000e+002 3.000000e+002 1.100000e+003
      endloop
   endfacet
   facet normal 1.000000e+000 0.000000e+000 0.000000e+000
      outer loop
         vertex 7.000000e+002 3.000000e+002 1.100000e+003
         vertex 7.000000e+002 5.500000e+002 0.000000e+000
         vertex 7.000000e+002 5.500000e+002 1.100000e+003
      endloop
   endfacet
   facet normal 0.000000e+000 1.000000e+000 0.000000e+000
      outer loop
         vertex 0.000000e+000 5.500000e+002 1.100000e+003
         vertex 7.000000e+002 5.500000e+002 1.100000e+003
         vertex 0.000000e+000 5.500000e+002 0.000000e+000
      endloop
   endfacet
   facet normal 0.000000e+000 1.000000e+000 0.000000e+000
      outer loop
         vertex 0.000000e+000 5.500000e+002 0.000000e+000
         vertex 7.000000e+002 5.500000e+002 1.100000e+003
         vertex 7.000000e+002 5.500000e+002 0.000000e+000
      endloop
   endfacet
   facet normal -1.000000e+000 0.000000e+000 0.000000e+000
      outer loop
         vertex 0.000000e+000 3.000000e+002 1.100000e+003
         vertex 0.000000e+000 5.500000e+002 1.100000e+003
         vertex 0.000000e+000 3.000000e+002 0.000000e+000
      endloop
   endfacet
   facet normal -1.000000e+000 0.000000e+000 0.000000e+000
      outer loop
         vertex 0.000000e+000 3.000000e+002 0.000000e+000
         vertex 0.000000e+000 5.500000e+002 1.100000e+003
         vertex 0.000000e+000 5.500000e+002 0.000000e+000
      endloop
   endfacet
   facet normal 0.000000e+000 -1.000000e+000 0.000000e+000
      outer loop
         vertex 9.999999e+001 0.000000e+000 0.000000e+000
         vertex 6.000000e+002 0.000000e+000 0.000000e+000
         vertex 9.999999e+001 0.000000e+000 1.100000e+003
      endloop
   endfacet
   facet normal 0.000000e+000 -1.000000e+000 0.000000e+000
      outer loop
         vertex 9.999999e+001 0.000000e+000 1.100000e+003
         vertex 6.000000e+002 0.000000e+000 0.000000e+000
         vertex 6.000000e+002 0.000000e+000 1.100000e+003
      endloop
   endfacet
   facet normal 0.000000e+000 0.000000e+000 1.000000e+000
      outer loop
         vertex 0.000000e+000 5.500000e+002 1.100000e+003
         vertex 0.000000e+000 3.000000e+002 1.100000e+003
         vertex 7.000000e+002 5.500000e+002 1.100000e+003
      endloop
   endfacet
   facet normal 0.000000e+000 0.000000e+000 1.000000e+000
      outer loop
         vertex 7.000000e+002 5.500000e+002 1.100000e+003
         vertex 0.000000e+000 3.000000e+002 1.100000e+003
         vertex 9.999999e+001 3.000000e+002 1.100000e+003
      endloop
   endfacet
   facet normal 0.000000e+000 0.000000e+000 1.000000e+000
      outer loop
         vertex 7.000000e+002 3.000000e+002 1.100000e+003
         vertex 7.000000e+002 5.500000e+002 1.100000e+003
         vertex 6.000000e+002 3.000000e+002 1.100000e+003
      endloop
   endfacet
   facet normal 0.000000e+000 0.000000e+000 1.000000e+000
      outer loop
         vertex 6.000000e+002 3.000000e+002 1.100000e+003
         vertex 7.000000e+002 5.500000e+002 1.100000e+003
         vertex 9.999999e+001 3.000000e+002 1.100000e+003
      endloop
   endfacet
   facet normal 0.000000e+000 0.000000e+000 1.000000e+000
      outer loop
         vertex 6.000000e+002 3.000000e+002 1.100000e+003
         vertex 9.999999e+001 3.000000e+002 1.100000e+003
         vertex 6.000000e+002 0.000000e+000 1.100000e+003
      endloop
   endfacet
   facet normal 0.000000e+000 0.000000e+000 1.000000e+000
      outer loop
         vertex 6.000000e+002 0.000000e+000 1.100000e+003
         vertex 9.999999e+001 3.000000e+002 1.100000e+003
         vertex 9.999999e+001 0.000000e+000 1.100000e+003
      endloop
   endfacet
   facet normal 0.000000e+000 0.000000e+000 -1.000000e+000
      outer loop
         vertex 7.000000e+002 5.500000e+002 0.000000e+000
         vertex 7.000000e+002 3.000000e+002 0.000000e+000
         vertex 0.000000e+000 5.500000e+002 0.000000e+000
      endloop
   endfacet
   facet normal 0.000000e+000 0.000000e+000 -1.000000e+000
      outer loop
         vertex 0.000000e+000 5.500000e+002 0.000000e+000
         vertex 7.000000e+002 3.000000e+002 0.000000e+000
         vertex 6.000000e+002 3.000000e+002 0.000000e+000
      endloop
   endfacet
   facet normal 0.000000e+000 0.000000e+000 -1.000000e+000
      outer loop
         vertex 0.000000e+000 3.000000e+002 0.000000e+000
         vertex 0.000000e+000 5.500000e+002 0.000000e+000
         vertex 9.999999e+001 3.000000e+002 0.000000e+000
      endloop
   endfacet
   facet normal 0.000000e+000 0.000000e+000 -1.000000e+000
      outer loop
         vertex 9.999999e+001 3.000000e+002 0.000000e+000
         vertex 0.000000e+000 5.500000e+002 0.000000e+000
         vertex 6.000000e+002 3.000000e+002 0.000000e+000
      endloop
   endfacet
   facet normal 0.000000e+000 0.000000e+000 -1.000000e+000
      outer loop
         vertex 9.999999e+001 3.000000e+002 0.000000e+000
         vertex 6.000000e+002 3.000000e+002 0.000000e+000
         vertex 9.999999e+001 0.000000e+000 0.000000e+000
      endloop
   endfacet
   facet normal 0.000000e+000 0.000000e+000 -1.000000e+000
      outer loop
         vertex 9.999999e+001 0.000000e+000 0.000000e+000
         vertex 6.000000e+002 3.000000e+002 0.000000e+000
         vertex 6.000000e+002 0.000000e+000 0.000000e+000
      endloop
   endfacet
   facet normal 1.000000e+000 -1.850372e-016 0.000000e+000
      outer loop
         vertex 6.000000e+002 0.000000e+000 0.000000e+000
         vertex 6.000000e+002 3.000000e+002 0.000000e+000
         vertex 6.000000e+002 0.000000e+000 1.100000e+003
      endloop
   endfacet
   facet normal 1.000000e+000 -1.850372e-016 0.000000e+000
      outer loop
         vertex 6.000000e+002 0.000000e+000 1.100000e+003
         vertex 6.000000e+002 3.000000e+002 0.000000e+000
         vertex 6.000000e+002 3.000000e+002 1.100000e+003
      endloop
   endfacet
   facet normal 1.387779e-016 -1.000000e+000 0.000000e+000
      outer loop
         vertex 6.000000e+002 3.000000e+002 0.000000e+000
         vertex 7.000000e+002 3.000000e+002 0.000000e+000
         vertex 6.000000e+002 3.000000e+002 1.100000e+003
      endloop
   endfacet
   facet normal 1.387779e-016 -1.000000e+000 0.000000e+000
      outer loop
         vertex 6.000000e+002 3.000000e+002 1.100000e+003
         vertex 7.000000e+002 3.000000e+002 0.000000e+000
         vertex 7.000000e+002 3.000000e+002 1.100000e+003
      endloop
   endfacet
   facet normal 0.000000e+000 -1.000000e+000 0.000000e+000
      outer loop
         vertex 0.000000e+000 3.000000e+002 0.000000e+000
         vertex 9.999999e+001 3.000000e+002 0.000000e+000
         vertex 0.000000e+000 3.000000e+002 1.100000e+003
      endloop
   endfacet
   facet normal 0.000000e+000 -1.000000e+000 0.000000e+000
      outer loop
         vertex 0.000000e+000 3.000000e+002 1.100000e+003
         vertex 9.999999e+001 3.000000e+002 0.000000e+000
         vertex 9.999999e+001 3.000000e+002 1.100000e+003
      endloop
   endfacet
   facet normal -1.000000e+000 0.000000e+000 0.000000e+000
      outer loop
         vertex 9.999999e+001 3.000000e+002 0.000000e+000
         vertex 9.999999e+001 0.000000e+000 0.000000e+000
         vertex 9.999999e+001 3.000000e+002 1.100000e+003
      endloop
   endfacet
   facet normal -1.000000e+000 0.000000e+000 0.000000e+000
      outer loop
         vertex 9.999999e+001 3.000000e+002 1.100000e+003
         vertex 9.999999e+001 0.000000e+000 0.000000e+000
         vertex 9.999999e+001 0.000000e+000 1.100000e+003
      endloop
   endfacet
endsolid