solid logo_blue
   facet normal -1.000000e+000 0.000000e+000 0.000000e+000
      outer loop
         vertex -7.586745e-002 -5.333475e-002 1.265000e-001
         vertex -7.586745e-002 -2.078475e-002 1.265000e-001
         vertex -7.586745e-002 -5.333475e-002 1.250000e-001
      endloop
   endfacet
   facet normal -1.000000e+000 0.000000e+000 0.000000e+000
      outer loop
         vertex -7.586745e-002 -5.333475e-002 1.250000e-001
         vertex -7.586745e-002 -2.078475e-002 1.265000e-001
         vertex -7.586745e-002 -2.078475e-002 1.250000e-001
      endloop
   endfacet
   facet normal -0.000000e+000 -1.000000e+000 -0.000000e+000
      outer loop
         vertex -1.504245e-002 -5.933475e-002 1.265000e-001
         vertex -6.986745e-002 -5.933475e-002 1.265000e-001
         vertex -1.504245e-002 -5.933475e-002 1.250000e-001
      endloop
   endfacet
   facet normal 0.000000e+000 -1.000000e+000 0.000000e+000
      outer loop
         vertex -1.504245e-002 -5.933475e-002 1.250000e-001
         vertex -6.986745e-002 -5.933475e-002 1.265000e-001
         vertex -6.986745e-002 -5.933475e-002 1.250000e-001
      endloop
   endfacet
   facet normal 1.000000e+000 0.000000e+000 0.000000e+000
      outer loop
         vertex -9.042447e-003 -2.078475e-002 1.265000e-001
         vertex -9.042447e-003 -5.333475e-002 1.265000e-001
         vertex -9.042447e-003 -2.078475e-002 1.250000e-001
      endloop
   endfacet
   facet normal 1.000000e+000 0.000000e+000 0.000000e+000
      outer loop
         vertex -9.042447e-003 -2.078475e-002 1.250000e-001
         vertex -9.042447e-003 -5.333475e-002 1.265000e-001
         vertex -9.042447e-003 -5.333475e-002 1.250000e-001
      endloop
   endfacet
   facet normal 0.000000e+000 1.000000e+000 -0.000000e+000
      outer loop
         vertex -1.504245e-002 -1.478476e-002 1.250000e-001
         vertex -6.986745e-002 -1.478476e-002 1.250000e-001
         vertex -1.504245e-002 -1.478476e-002 1.265000e-001
      endloop
   endfacet
   facet normal 0.000000e+000 1.000000e+000 0.000000e+000
      outer loop
         vertex -1.504245e-002 -1.478476e-002 1.265000e-001
         vertex -6.986745e-002 -1.478476e-002 1.250000e-001
         vertex -6.986745e-002 -1.478476e-002 1.265000e-001
      endloop
   endfacet
   facet normal 0.000000e+000 0.000000e+000 1.000000e+000
      outer loop
         vertex -9.042447e-003 -2.078475e-002 1.265000e-001
         vertex -7.586745e-002 -2.078475e-002 1.265000e-001
         vertex -9.042447e-003 -5.333475e-002 1.265000e-001
      endloop
   endfacet
   facet normal 0.000000e+000 0.000000e+000 1.000000e+000
      outer loop
         vertex -9.042447e-003 -5.333475e-002 1.265000e-001
         vertex -7.586745e-002 -2.078475e-002 1.265000e-001
         vertex -7.586745e-002 -5.333475e-002 1.265000e-001
      endloop
   endfacet
   facet normal 0.000000e+000 0.000000e+000 1.000000e+000
      outer loop
         vertex -1.018835e-002 -1.725804e-002 1.265000e-001
         vertex -1.151573e-002 -1.593066e-002 1.265000e-001
         vertex -1.318834e-002 -1.507841e-002 1.265000e-001
      endloop
   endfacet
   facet normal 0.000000e+000 0.000000e+000 1.000000e+000
      outer loop
         vertex -7.172155e-002 -1.507841e-002 1.265000e-001
         vertex -7.339416e-002 -1.593066e-002 1.265000e-001
         vertex -7.472155e-002 -1.725804e-002 1.265000e-001
      endloop
   endfacet
   facet normal -0.000000e+000 0.000000e+000 1.000000e+000
      outer loop
         vertex -7.472155e-002 -1.725804e-002 1.265000e-001
         vertex -7.557379e-002 -1.893065e-002 1.265000e-001
         vertex -7.172155e-002 -1.507841e-002 1.265000e-001
      endloop
   endfacet
   facet normal 0.000000e+000 0.000000e+000 1.000000e+000
      outer loop
         vertex -7.172155e-002 -1.507841e-002 1.265000e-001
         vertex -7.557379e-002 -1.893065e-002 1.265000e-001
         vertex -7.586745e-002 -2.078475e-002 1.265000e-001
      endloop
   endfacet
   facet normal -0.000000e+000 0.000000e+000 1.000000e+000
      outer loop
         vertex -7.172155e-002 -1.507841e-002 1.265000e-001
         vertex -7.586745e-002 -2.078475e-002 1.265000e-001
         vertex -6.986745e-002 -1.478476e-002 1.265000e-001
      endloop
   endfacet
   facet normal 0.000000e+000 0.000000e+000 1.000000e+000
      outer loop
         vertex -7.472155e-002 -5.686146e-002 1.265000e-001
         vertex -7.339416e-002 -5.818885e-002 1.265000e-001
         vertex -7.172155e-002 -5.904109e-002 1.265000e-001
      endloop
   endfacet
   facet normal 0.000000e+000 0.000000e+000 1.000000e+000
      outer loop
         vertex -1.504245e-002 -5.933475e-002 1.265000e-001
         vertex -1.318834e-002 -5.904109e-002 1.265000e-001
         vertex -9.042447e-003 -5.333475e-002 1.265000e-001
      endloop
   endfacet
   facet normal 0.000000e+000 0.000000e+000 1.000000e+000
      outer loop
         vertex -9.042447e-003 -5.333475e-002 1.265000e-001
         vertex -1.318834e-002 -5.904109e-002 1.265000e-001
         vertex -1.151573e-002 -5.818885e-002 1.265000e-001
      endloop
   endfacet
   facet normal 0.000000e+000 0.000000e+000 1.000000e+000
      outer loop
         vertex -9.042447e-003 -5.333475e-002 1.265000e-001
         vertex -1.151573e-002 -5.818885e-002 1.265000e-001
         vertex -9.336111e-003 -5.518885e-002 1.265000e-001
      endloop
   endfacet
   facet normal 0.000000e+000 0.000000e+000 1.000000e+000
      outer loop
         vertex -9.336111e-003 -5.518885e-002 1.265000e-001
         vertex -1.151573e-002 -5.818885e-002 1.265000e-001
         vertex -1.018835e-002 -5.686146e-002 1.265000e-001
      endloop
   endfacet
   facet normal -0.000000e+000 0.000000e+000 1.000000e+000
      outer loop
         vertex -6.986745e-002 -1.478476e-002 1.265000e-001
         vertex -7.586745e-002 -2.078475e-002 1.265000e-001
         vertex -1.504245e-002 -1.478476e-002 1.265000e-001
      endloop
   endfacet
   facet normal 0.000000e+000 0.000000e+000 1.000000e+000
      outer loop
         vertex -1.504245e-002 -1.478476e-002 1.265000e-001
         vertex -7.586745e-002 -2.078475e-002 1.265000e-001
         vertex -9.042447e-003 -2.078475e-002 1.265000e-001
      endloop
   endfacet
   facet normal 0.000000e+000 0.000000e+000 1.000000e+000
      outer loop
         vertex -1.504245e-002 -1.478476e-002 1.265000e-001
         vertex -9.042447e-003 -2.078475e-002 1.265000e-001
         vertex -1.318834e-002 -1.507841e-002 1.265000e-001
      endloop
   endfacet
   facet normal 0.000000e+000 0.000000e+000 1.000000e+000
      outer loop
         vertex -1.318834e-002 -1.507841e-002 1.265000e-001
         vertex -9.042447e-003 -2.078475e-002 1.265000e-001
         vertex -9.336111e-003 -1.893065e-002 1.265000e-001
      endloop
   endfacet
   facet normal 0.000000e+000 0.000000e+000 1.000000e+000
      outer loop
         vertex -1.318834e-002 -1.507841e-002 1.265000e-001
         vertex -9.336111e-003 -1.893065e-002 1.265000e-001
         vertex -1.018835e-002 -1.725804e-002 1.265000e-001
      endloop
   endfacet
   facet normal 0.000000e+000 -0.000000e+000 1.000000e+000
      outer loop
         vertex -1.504245e-002 -5.933475e-002 1.265000e-001
         vertex -9.042447e-003 -5.333475e-002 1.265000e-001
         vertex -6.986745e-002 -5.933475e-002 1.265000e-001
      endloop
   endfacet
   facet normal 0.000000e+000 -0.000000e+000 1.000000e+000
      outer loop
         vertex -6.986745e-002 -5.933475e-002 1.265000e-001
         vertex -9.042447e-003 -5.333475e-002 1.265000e-001
         vertex -7.586745e-002 -5.333475e-002 1.265000e-001
      endloop
   endfacet
   facet normal 0.000000e+000 0.000000e+000 1.000000e+000
      outer loop
         vertex -6.986745e-002 -5.933475e-002 1.265000e-001
         vertex -7.586745e-002 -5.333475e-002 1.265000e-001
         vertex -7.172155e-002 -5.904109e-002 1.265000e-001
      endloop
   endfacet
   facet normal 0.000000e+000 0.000000e+000 1.000000e+000
      outer loop
         vertex -7.172155e-002 -5.904109e-002 1.265000e-001
         vertex -7.586745e-002 -5.333475e-002 1.265000e-001
         vertex -7.557379e-002 -5.518885e-002 1.265000e-001
      endloop
   endfacet
   facet normal 0.000000e+000 0.000000e+000 1.000000e+000
      outer loop
         vertex -7.172155e-002 -5.904109e-002 1.265000e-001
         vertex -7.557379e-002 -5.518885e-002 1.265000e-001
         vertex -7.472155e-002 -5.686146e-002 1.265000e-001
      endloop
   endfacet
   facet normal 0.000000e+000 0.000000e+000 -1.000000e+000
      outer loop
         vertex -1.318834e-002 -5.904109e-002 1.250000e-001
         vertex -9.042447e-003 -5.333475e-002 1.250000e-001
         vertex -1.151573e-002 -5.818885e-002 1.250000e-001
      endloop
   endfacet
   facet normal 0.000000e+000 0.000000e+000 -1.000000e+000
      outer loop
         vertex -1.151573e-002 -5.818885e-002 1.250000e-001
         vertex -9.042447e-003 -5.333475e-002 1.250000e-001
         vertex -9.336111e-003 -5.518885e-002 1.250000e-001
      endloop
   endfacet
   facet normal 0.000000e+000 0.000000e+000 -1.000000e+000
      outer loop
         vertex -1.151573e-002 -5.818885e-002 1.250000e-001
         vertex -9.336111e-003 -5.518885e-002 1.250000e-001
         vertex -1.018835e-002 -5.686146e-002 1.250000e-001
      endloop
   endfacet
   facet normal 0.000000e+000 0.000000e+000 -1.000000e+000
      outer loop
         vertex -1.504245e-002 -5.933475e-002 1.250000e-001
         vertex -6.986745e-002 -5.933475e-002 1.250000e-001
         vertex -7.586745e-002 -5.333475e-002 1.250000e-001
      endloop
   endfacet
   facet normal 0.000000e+000 0.000000e+000 -1.000000e+000
      outer loop
         vertex -7.586745e-002 -5.333475e-002 1.250000e-001
         vertex -6.986745e-002 -5.933475e-002 1.250000e-001
         vertex -7.172155e-002 -5.904109e-002 1.250000e-001
      endloop
   endfacet
   facet normal 0.000000e+000 0.000000e+000 -1.000000e+000
      outer loop
         vertex -7.472155e-002 -1.725804e-002 1.250000e-001
         vertex -7.339416e-002 -1.593066e-002 1.250000e-001
         vertex -7.172155e-002 -1.507841e-002 1.250000e-001
      endloop
   endfacet
   facet normal -0.000000e+000 0.000000e+000 -1.000000e+000
      outer loop
         vertex -1.318834e-002 -5.904109e-002 1.250000e-001
         vertex -1.504245e-002 -5.933475e-002 1.250000e-001
         vertex -9.042447e-003 -5.333475e-002 1.250000e-001
      endloop
   endfacet
   facet normal -0.000000e+000 0.000000e+000 -1.000000e+000
      outer loop
         vertex -9.042447e-003 -5.333475e-002 1.250000e-001
         vertex -1.504245e-002 -5.933475e-002 1.250000e-001
         vertex -7.586745e-002 -5.333475e-002 1.250000e-001
      endloop
   endfacet
   facet normal 0.000000e+000 0.000000e+000 -1.000000e+000
      outer loop
         vertex -9.042447e-003 -5.333475e-002 1.250000e-001
         vertex -7.586745e-002 -5.333475e-002 1.250000e-001
         vertex -9.042447e-003 -2.078475e-002 1.250000e-001
      endloop
   endfacet
   facet normal -0.000000e+000 0.000000e+000 -1.000000e+000
      outer loop
         vertex -9.042447e-003 -2.078475e-002 1.250000e-001
         vertex -7.586745e-002 -5.333475e-002 1.250000e-001
         vertex -7.586745e-002 -2.078475e-002 1.250000e-001
      endloop
   endfacet
   facet normal 0.000000e+000 0.000000e+000 -1.000000e+000
      outer loop
         vertex -9.042447e-003 -2.078475e-002 1.250000e-001
         vertex -7.586745e-002 -2.078475e-002 1.250000e-001
         vertex -6.986745e-002 -1.478476e-002 1.250000e-001
      endloop
   endfacet
   facet normal 0.000000e+000 0.000000e+000 -1.000000e+000
      outer loop
         vertex -7.172155e-002 -5.904109e-002 1.250000e-001
         vertex -7.339416e-002 -5.818885e-002 1.250000e-001
         vertex -7.586745e-002 -5.333475e-002 1.250000e-001
      endloop
   endfacet
   facet normal 0.000000e+000 0.000000e+000 -1.000000e+000
      outer loop
         vertex -7.586745e-002 -5.333475e-002 1.250000e-001
         vertex -7.339416e-002 -5.818885e-002 1.250000e-001
         vertex -7.472155e-002 -5.686146e-002 1.250000e-001
      endloop
   endfacet
   facet normal 0.000000e+000 0.000000e+000 -1.000000e+000
      outer loop
         vertex -7.586745e-002 -5.333475e-002 1.250000e-001
         vertex -7.472155e-002 -5.686146e-002 1.250000e-001
         vertex -7.557379e-002 -5.518885e-002 1.250000e-001
      endloop
   endfacet
   facet normal 0.000000e+000 0.000000e+000 -1.000000e+000
      outer loop
         vertex -6.986745e-002 -1.478476e-002 1.250000e-001
         vertex -7.586745e-002 -2.078475e-002 1.250000e-001
         vertex -7.172155e-002 -1.507841e-002 1.250000e-001
      endloop
   endfacet
   facet normal 0.000000e+000 0.000000e+000 -1.000000e+000
      outer loop
         vertex -7.172155e-002 -1.507841e-002 1.250000e-001
         vertex -7.586745e-002 -2.078475e-002 1.250000e-001
         vertex -7.557379e-002 -1.893065e-002 1.250000e-001
      endloop
   endfacet
   facet normal 0.000000e+000 0.000000e+000 -1.000000e+000
      outer loop
         vertex -7.172155e-002 -1.507841e-002 1.250000e-001
         vertex -7.557379e-002 -1.893065e-002 1.250000e-001
         vertex -7.472155e-002 -1.725804e-002 1.250000e-001
      endloop
   endfacet
   facet normal 0.000000e+000 0.000000e+000 -1.000000e+000
      outer loop
         vertex -1.318834e-002 -1.507841e-002 1.250000e-001
         vertex -1.151573e-002 -1.593066e-002 1.250000e-001
         vertex -1.018835e-002 -1.725804e-002 1.250000e-001
      endloop
   endfacet
   facet normal 0.000000e+000 0.000000e+000 -1.000000e+000
      outer loop
         vertex -6.986745e-002 -1.478476e-002 1.250000e-001
         vertex -1.504245e-002 -1.478476e-002 1.250000e-001
         vertex -9.042447e-003 -2.078475e-002 1.250000e-001
      endloop
   endfacet
   facet normal 0.000000e+000 0.000000e+000 -1.000000e+000
      outer loop
         vertex -9.042447e-003 -2.078475e-002 1.250000e-001
         vertex -1.504245e-002 -1.478476e-002 1.250000e-001
         vertex -1.318834e-002 -1.507841e-002 1.250000e-001
      endloop
   endfacet
   facet normal 0.000000e+000 0.000000e+000 -1.000000e+000
      outer loop
         vertex -9.042447e-003 -2.078475e-002 1.250000e-001
         vertex -1.318834e-002 -1.507841e-002 1.250000e-001
         vertex -9.336111e-003 -1.893065e-002 1.250000e-001
      endloop
   endfacet
   facet normal 0.000000e+000 0.000000e+000 -1.000000e+000
      outer loop
         vertex -9.336111e-003 -1.893065e-002 1.250000e-001
         vertex -1.318834e-002 -1.507841e-002 1.250000e-001
         vertex -1.018835e-002 -1.725804e-002 1.250000e-001
      endloop
   endfacet
   facet normal 9.876881e-001 1.564360e-001 0.000000e+000
      outer loop
         vertex -9.042447e-003 -2.078475e-002 1.265000e-001
         vertex -9.042447e-003 -2.078475e-002 1.250000e-001
         vertex -9.336111e-003 -1.893065e-002 1.250000e-001
      endloop
   endfacet
   facet normal 9.876881e-001 1.564360e-001 0.000000e+000
      outer loop
         vertex -9.042447e-003 -2.078475e-002 1.265000e-001
         vertex -9.336111e-003 -1.893065e-002 1.250000e-001
         vertex -9.336111e-003 -1.893065e-002 1.265000e-001
      endloop
   endfacet
   facet normal 8.910072e-001 4.539892e-001 0.000000e+000
      outer loop
         vertex -9.336111e-003 -1.893065e-002 1.265000e-001
         vertex -9.336111e-003 -1.893065e-002 1.250000e-001
         vertex -1.018835e-002 -1.725804e-002 1.250000e-001
      endloop
   endfacet
   facet normal 8.910072e-001 4.539892e-001 0.000000e+000
      outer loop
         vertex -9.336111e-003 -1.893065e-002 1.265000e-001
         vertex -1.018835e-002 -1.725804e-002 1.250000e-001
         vertex -1.018835e-002 -1.725804e-002 1.265000e-001
      endloop
   endfacet
   facet normal 7.071048e-001 7.071087e-001 0.000000e+000
      outer loop
         vertex -1.018835e-002 -1.725804e-002 1.265000e-001
         vertex -1.018835e-002 -1.725804e-002 1.250000e-001
         vertex -1.151573e-002 -1.593066e-002 1.250000e-001
      endloop
   endfacet
   facet normal 7.071048e-001 7.071087e-001 0.000000e+000
      outer loop
         vertex -1.018835e-002 -1.725804e-002 1.265000e-001
         vertex -1.151573e-002 -1.593066e-002 1.250000e-001
         vertex -1.151573e-002 -1.593066e-002 1.265000e-001
      endloop
   endfacet
   facet normal 4.539924e-001 8.910056e-001 0.000000e+000
      outer loop
         vertex -1.151573e-002 -1.593066e-002 1.265000e-001
         vertex -1.151573e-002 -1.593066e-002 1.250000e-001
         vertex -1.318834e-002 -1.507841e-002 1.250000e-001
      endloop
   endfacet
   facet normal 4.539924e-001 8.910056e-001 0.000000e+000
      outer loop
         vertex -1.151573e-002 -1.593066e-002 1.265000e-001
         vertex -1.318834e-002 -1.507841e-002 1.250000e-001
         vertex -1.318834e-002 -1.507841e-002 1.265000e-001
      endloop
   endfacet
   facet normal 1.564324e-001 9.876887e-001 0.000000e+000
      outer loop
         vertex -1.318834e-002 -1.507841e-002 1.265000e-001
         vertex -1.318834e-002 -1.507841e-002 1.250000e-001
         vertex -1.504245e-002 -1.478476e-002 1.250000e-001
      endloop
   endfacet
   facet normal 1.564324e-001 9.876887e-001 -2.223134e-017
      outer loop
         vertex -1.318834e-002 -1.507841e-002 1.265000e-001
         vertex -1.504245e-002 -1.478476e-002 1.250000e-001
         vertex -1.504245e-002 -1.478476e-002 1.265000e-001
      endloop
   endfacet
   facet normal 1.564324e-001 -9.876887e-001 0.000000e+000
      outer loop
         vertex -1.504245e-002 -5.933475e-002 1.265000e-001
         vertex -1.504245e-002 -5.933475e-002 1.250000e-001
         vertex -1.318834e-002 -5.904109e-002 1.250000e-001
      endloop
   endfacet
   facet normal 1.564324e-001 -9.876887e-001 2.223134e-017
      outer loop
         vertex -1.504245e-002 -5.933475e-002 1.265000e-001
         vertex -1.318834e-002 -5.904109e-002 1.250000e-001
         vertex -1.318834e-002 -5.904109e-002 1.265000e-001
      endloop
   endfacet
   facet normal 4.539924e-001 -8.910056e-001 0.000000e+000
      outer loop
         vertex -1.318834e-002 -5.904109e-002 1.265000e-001
         vertex -1.318834e-002 -5.904109e-002 1.250000e-001
         vertex -1.151573e-002 -5.818885e-002 1.250000e-001
      endloop
   endfacet
   facet normal 4.539924e-001 -8.910056e-001 0.000000e+000
      outer loop
         vertex -1.318834e-002 -5.904109e-002 1.265000e-001
         vertex -1.151573e-002 -5.818885e-002 1.250000e-001
         vertex -1.151573e-002 -5.818885e-002 1.265000e-001
      endloop
   endfacet
   facet normal 7.071068e-001 -7.071068e-001 0.000000e+000
      outer loop
         vertex -1.151573e-002 -5.818885e-002 1.265000e-001
         vertex -1.151573e-002 -5.818885e-002 1.250000e-001
         vertex -1.018835e-002 -5.686146e-002 1.250000e-001
      endloop
   endfacet
   facet normal 7.071068e-001 -7.071068e-001 0.000000e+000
      outer loop
         vertex -1.151573e-002 -5.818885e-002 1.265000e-001
         vertex -1.018835e-002 -5.686146e-002 1.250000e-001
         vertex -1.018835e-002 -5.686146e-002 1.265000e-001
      endloop
   endfacet
   facet normal 8.910072e-001 -4.539892e-001 0.000000e+000
      outer loop
         vertex -1.018835e-002 -5.686146e-002 1.265000e-001
         vertex -1.018835e-002 -5.686146e-002 1.250000e-001
         vertex -9.336111e-003 -5.518885e-002 1.250000e-001
      endloop
   endfacet
   facet normal 8.910072e-001 -4.539892e-001 0.000000e+000
      outer loop
         vertex -1.018835e-002 -5.686146e-002 1.265000e-001
         vertex -9.336111e-003 -5.518885e-002 1.250000e-001
         vertex -9.336111e-003 -5.518885e-002 1.265000e-001
      endloop
   endfacet
   facet normal 9.876880e-001 -1.564366e-001 0.000000e+000
      outer loop
         vertex -9.336111e-003 -5.518885e-002 1.265000e-001
         vertex -9.336111e-003 -5.518885e-002 1.250000e-001
         vertex -9.042447e-003 -5.333475e-002 1.250000e-001
      endloop
   endfacet
   facet normal 9.876880e-001 -1.564366e-001 0.000000e+000
      outer loop
         vertex -9.336111e-003 -5.518885e-002 1.265000e-001
         vertex -9.042447e-003 -5.333475e-002 1.250000e-001
         vertex -9.042447e-003 -5.333475e-002 1.265000e-001
      endloop
   endfacet
   facet normal -9.876880e-001 -1.564366e-001 -0.000000e+000
      outer loop
         vertex -7.586745e-002 -5.333475e-002 1.265000e-001
         vertex -7.586745e-002 -5.333475e-002 1.250000e-001
         vertex -7.557379e-002 -5.518885e-002 1.250000e-001
      endloop
   endfacet
   facet normal -9.876880e-001 -1.564366e-001 0.000000e+000
      outer loop
         vertex -7.586745e-002 -5.333475e-002 1.265000e-001
         vertex -7.557379e-002 -5.518885e-002 1.250000e-001
         vertex -7.557379e-002 -5.518885e-002 1.265000e-001
      endloop
   endfacet
   facet normal -8.910072e-001 -4.539892e-001 -0.000000e+000
      outer loop
         vertex -7.557379e-002 -5.518885e-002 1.265000e-001
         vertex -7.557379e-002 -5.518885e-002 1.250000e-001
         vertex -7.472155e-002 -5.686146e-002 1.250000e-001
      endloop
   endfacet
   facet normal -8.910072e-001 -4.539892e-001 0.000000e+000
      outer loop
         vertex -7.557379e-002 -5.518885e-002 1.265000e-001
         vertex -7.472155e-002 -5.686146e-002 1.250000e-001
         vertex -7.472155e-002 -5.686146e-002 1.265000e-001
      endloop
   endfacet
   facet normal -7.071048e-001 -7.071087e-001 -0.000000e+000
      outer loop
         vertex -7.472155e-002 -5.686146e-002 1.265000e-001
         vertex -7.472155e-002 -5.686146e-002 1.250000e-001
         vertex -7.339416e-002 -5.818885e-002 1.250000e-001
      endloop
   endfacet
   facet normal -7.071048e-001 -7.071087e-001 0.000000e+000
      outer loop
         vertex -7.472155e-002 -5.686146e-002 1.265000e-001
         vertex -7.339416e-002 -5.818885e-002 1.250000e-001
         vertex -7.339416e-002 -5.818885e-002 1.265000e-001
      endloop
   endfacet
   facet normal -4.539940e-001 -8.910047e-001 -0.000000e+000
      outer loop
         vertex -7.339416e-002 -5.818885e-002 1.265000e-001
         vertex -7.339416e-002 -5.818885e-002 1.250000e-001
         vertex -7.172155e-002 -5.904109e-002 1.250000e-001
      endloop
   endfacet
   facet normal -4.539940e-001 -8.910047e-001 0.000000e+000
      outer loop
         vertex -7.339416e-002 -5.818885e-002 1.265000e-001
         vertex -7.172155e-002 -5.904109e-002 1.250000e-001
         vertex -7.172155e-002 -5.904109e-002 1.265000e-001
      endloop
   endfacet
   facet normal -1.564321e-001 -9.876887e-001 -0.000000e+000
      outer loop
         vertex -7.172155e-002 -5.904109e-002 1.265000e-001
         vertex -7.172155e-002 -5.904109e-002 1.250000e-001
         vertex -6.986745e-002 -5.933475e-002 1.250000e-001
      endloop
   endfacet
   facet normal -1.564321e-001 -9.876887e-001 -2.223137e-017
      outer loop
         vertex -7.172155e-002 -5.904109e-002 1.265000e-001
         vertex -6.986745e-002 -5.933475e-002 1.250000e-001
         vertex -6.986745e-002 -5.933475e-002 1.265000e-001
      endloop
   endfacet
   facet normal -1.564321e-001 9.876887e-001 0.000000e+000
      outer loop
         vertex -6.986745e-002 -1.478476e-002 1.265000e-001
         vertex -6.986745e-002 -1.478476e-002 1.250000e-001
         vertex -7.172155e-002 -1.507841e-002 1.250000e-001
      endloop
   endfacet
   facet normal -1.564321e-001 9.876887e-001 2.223137e-017
      outer loop
         vertex -6.986745e-002 -1.478476e-002 1.265000e-001
         vertex -7.172155e-002 -1.507841e-002 1.250000e-001
         vertex -7.172155e-002 -1.507841e-002 1.265000e-001
      endloop
   endfacet
   facet normal -4.539940e-001 8.910047e-001 0.000000e+000
      outer loop
         vertex -7.172155e-002 -1.507841e-002 1.265000e-001
         vertex -7.172155e-002 -1.507841e-002 1.250000e-001
         vertex -7.339416e-002 -1.593066e-002 1.250000e-001
      endloop
   endfacet
   facet normal -4.539940e-001 8.910047e-001 0.000000e+000
      outer loop
         vertex -7.172155e-002 -1.507841e-002 1.265000e-001
         vertex -7.339416e-002 -1.593066e-002 1.250000e-001
         vertex -7.339416e-002 -1.593066e-002 1.265000e-001
      endloop
   endfacet
   facet normal -7.071028e-001 7.071108e-001 0.000000e+000
      outer loop
         vertex -7.339416e-002 -1.593066e-002 1.265000e-001
         vertex -7.339416e-002 -1.593066e-002 1.250000e-001
         vertex -7.472155e-002 -1.725804e-002 1.250000e-001
      endloop
   endfacet
   facet normal -7.071028e-001 7.071108e-001 -8.892524e-017
      outer loop
         vertex -7.339416e-002 -1.593066e-002 1.265000e-001
         vertex -7.472155e-002 -1.725804e-002 1.250000e-001
         vertex -7.472155e-002 -1.725804e-002 1.265000e-001
      endloop
   endfacet
   facet normal -8.910072e-001 4.539892e-001 0.000000e+000
      outer loop
         vertex -7.472155e-002 -1.725804e-002 1.265000e-001
         vertex -7.472155e-002 -1.725804e-002 1.250000e-001
         vertex -7.557379e-002 -1.893065e-002 1.250000e-001
      endloop
   endfacet
   facet normal -8.910072e-001 4.539892e-001 0.000000e+000
      outer loop
         vertex -7.472155e-002 -1.725804e-002 1.265000e-001
         vertex -7.557379e-002 -1.893065e-002 1.250000e-001
         vertex -7.557379e-002 -1.893065e-002 1.265000e-001
      endloop
   endfacet
   facet normal -9.876881e-001 1.564360e-001 0.000000e+000
      outer loop
         vertex -7.557379e-002 -1.893065e-002 1.265000e-001
         vertex -7.557379e-002 -1.893065e-002 1.250000e-001
         vertex -7.586745e-002 -2.078475e-002 1.250000e-001
      endloop
   endfacet
   facet normal -9.876881e-001 1.564360e-001 0.000000e+000
      outer loop
         vertex -7.557379e-002 -1.893065e-002 1.265000e-001
         vertex -7.586745e-002 -2.078475e-002 1.250000e-001
         vertex -7.586745e-002 -2.078475e-002 1.265000e-001
      endloop
   endfacet
endsolid