solid logo_grey
   facet normal 0.000000e+000 1.000000e+000 -0.000000e+000
      outer loop
         vertex -1.504245e-002 -7.418475e-002 1.250000e-001
         vertex -6.986745e-002 -7.418475e-002 1.250000e-001
         vertex -1.504245e-002 -7.418475e-002 1.265000e-001
      endloop
   endfacet
   facet normal 0.000000e+000 1.000000e+000 0.000000e+000
      outer loop
         vertex -1.504245e-002 -7.418475e-002 1.265000e-001
         vertex -6.986745e-002 -7.418475e-002 1.250000e-001
         vertex -6.986745e-002 -7.418475e-002 1.265000e-001
      endloop
   endfacet
   facet normal -1.000000e+000 0.000000e+000 0.000000e+000
      outer loop
         vertex -7.586745e-002 -1.572848e-001 1.265000e-001
         vertex -7.586745e-002 -8.018475e-002 1.265000e-001
         vertex -7.586745e-002 -1.572848e-001 1.250000e-001
      endloop
   endfacet
   facet normal -1.000000e+000 0.000000e+000 0.000000e+000
      outer loop
         vertex -7.586745e-002 -1.572848e-001 1.250000e-001
         vertex -7.586745e-002 -8.018475e-002 1.265000e-001
         vertex -7.586745e-002 -8.018475e-002 1.250000e-001
      endloop
   endfacet
   facet normal 0.000000e+000 -1.000000e+000 0.000000e+000
      outer loop
         vertex -6.986745e-002 -1.632847e-001 1.250000e-001
         vertex 6.663255e-002 -1.632847e-001 1.250000e-001
         vertex -6.986745e-002 -1.632847e-001 1.265000e-001
      endloop
   endfacet
   facet normal 0.000000e+000 -1.000000e+000 0.000000e+000
      outer loop
         vertex -6.986745e-002 -1.632847e-001 1.265000e-001
         vertex 6.663255e-002 -1.632847e-001 1.250000e-001
         vertex 6.663255e-002 -1.632847e-001 1.265000e-001
      endloop
   endfacet
   facet normal 1.000000e+000 0.000000e+000 0.000000e+000
      outer loop
         vertex 7.263254e-002 -1.572848e-001 1.250000e-001
         vertex 7.263254e-002 -8.018475e-002 1.250000e-001
         vertex 7.263254e-002 -1.572848e-001 1.265000e-001
      endloop
   endfacet
   facet normal 1.000000e+000 -0.000000e+000 0.000000e+000
      outer loop
         vertex 7.263254e-002 -1.572848e-001 1.265000e-001
         vertex 7.263254e-002 -8.018475e-002 1.250000e-001
         vertex 7.263254e-002 -8.018475e-002 1.265000e-001
      endloop
   endfacet
   facet normal 0.000000e+000 1.000000e+000 -0.000000e+000
      outer loop
         vertex 6.663255e-002 -7.418475e-002 1.250000e-001
         vertex 4.150755e-002 -7.418475e-002 1.250000e-001
         vertex 6.663255e-002 -7.418475e-002 1.265000e-001
      endloop
   endfacet
   facet normal 0.000000e+000 1.000000e+000 0.000000e+000
      outer loop
         vertex 6.663255e-002 -7.418475e-002 1.265000e-001
         vertex 4.150755e-002 -7.418475e-002 1.250000e-001
         vertex 4.150755e-002 -7.418475e-002 1.265000e-001
      endloop
   endfacet
   facet normal 1.000000e+000 0.000000e+000 0.000000e+000
      outer loop
         vertex 3.550755e-002 -6.818475e-002 1.250000e-001
         vertex 3.550755e-002 -5.048475e-002 1.250000e-001
         vertex 3.550755e-002 -6.818475e-002 1.265000e-001
      endloop
   endfacet
   facet normal 1.000000e+000 -0.000000e+000 0.000000e+000
      outer loop
         vertex 3.550755e-002 -6.818475e-002 1.265000e-001
         vertex 3.550755e-002 -5.048475e-002 1.250000e-001
         vertex 3.550755e-002 -5.048475e-002 1.265000e-001
      endloop
   endfacet
   facet normal 0.000000e+000 -1.000000e+000 0.000000e+000
      outer loop
         vertex 4.150755e-002 -4.448475e-002 1.250000e-001
         vertex 6.663255e-002 -4.448475e-002 1.250000e-001
         vertex 4.150755e-002 -4.448475e-002 1.265000e-001
      endloop
   endfacet
   facet normal 0.000000e+000 -1.000000e+000 0.000000e+000
      outer loop
         vertex 4.150755e-002 -4.448475e-002 1.265000e-001
         vertex 6.663255e-002 -4.448475e-002 1.250000e-001
         vertex 6.663255e-002 -4.448475e-002 1.265000e-001
      endloop
   endfacet
   facet normal 1.000000e+000 0.000000e+000 0.000000e+000
      outer loop
         vertex 7.263254e-002 -3.848476e-002 1.250000e-001
         vertex 7.263254e-002 -2.078475e-002 1.250000e-001
         vertex 7.263254e-002 -3.848476e-002 1.265000e-001
      endloop
   endfacet
   facet normal 1.000000e+000 -0.000000e+000 0.000000e+000
      outer loop
         vertex 7.263254e-002 -3.848476e-002 1.265000e-001
         vertex 7.263254e-002 -2.078475e-002 1.250000e-001
         vertex 7.263254e-002 -2.078475e-002 1.265000e-001
      endloop
   endfacet
   facet normal 0.000000e+000 1.000000e+000 -0.000000e+000
      outer loop
         vertex 6.663255e-002 -1.478476e-002 1.250000e-001
         vertex 1.180755e-002 -1.478476e-002 1.250000e-001
         vertex 6.663255e-002 -1.478476e-002 1.265000e-001
      endloop
   endfacet
   facet normal 0.000000e+000 1.000000e+000 0.000000e+000
      outer loop
         vertex 6.663255e-002 -1.478476e-002 1.265000e-001
         vertex 1.180755e-002 -1.478476e-002 1.250000e-001
         vertex 1.180755e-002 -1.478476e-002 1.265000e-001
      endloop
   endfacet
   facet normal -1.000000e+000 0.000000e+000 0.000000e+000
      outer loop
         vertex 5.807552e-003 -2.078475e-002 1.250000e-001
         vertex 5.807552e-003 -9.788475e-002 1.250000e-001
         vertex 5.807552e-003 -2.078475e-002 1.265000e-001
      endloop
   endfacet
   facet normal -1.000000e+000 -0.000000e+000 0.000000e+000
      outer loop
         vertex 5.807552e-003 -2.078475e-002 1.265000e-001
         vertex 5.807552e-003 -9.788475e-002 1.250000e-001
         vertex 5.807552e-003 -9.788475e-002 1.265000e-001
      endloop
   endfacet
   facet normal 0.000000e+000 -1.000000e+000 0.000000e+000
      outer loop
         vertex 1.180755e-002 -1.038847e-001 1.250000e-001
         vertex 3.693255e-002 -1.038847e-001 1.250000e-001
         vertex 1.180755e-002 -1.038847e-001 1.265000e-001
      endloop
   endfacet
   facet normal 0.000000e+000 -1.000000e+000 0.000000e+000
      outer loop
         vertex 1.180755e-002 -1.038847e-001 1.265000e-001
         vertex 3.693255e-002 -1.038847e-001 1.250000e-001
         vertex 3.693255e-002 -1.038847e-001 1.265000e-001
      endloop
   endfacet
   facet normal -1.000000e+000 0.000000e+000 0.000000e+000
      outer loop
         vertex 4.293255e-002 -1.098848e-001 1.250000e-001
         vertex 4.293255e-002 -1.275848e-001 1.250000e-001
         vertex 4.293255e-002 -1.098848e-001 1.265000e-001
      endloop
   endfacet
   facet normal -1.000000e+000 -0.000000e+000 0.000000e+000
      outer loop
         vertex 4.293255e-002 -1.098848e-001 1.265000e-001
         vertex 4.293255e-002 -1.275848e-001 1.250000e-001
         vertex 4.293255e-002 -1.275848e-001 1.265000e-001
      endloop
   endfacet
   facet normal 0.000000e+000 1.000000e+000 -0.000000e+000
      outer loop
         vertex 3.693255e-002 -1.335848e-001 1.250000e-001
         vertex -4.016745e-002 -1.335848e-001 1.250000e-001
         vertex 3.693255e-002 -1.335848e-001 1.265000e-001
      endloop
   endfacet
   facet normal 0.000000e+000 1.000000e+000 0.000000e+000
      outer loop
         vertex 3.693255e-002 -1.335848e-001 1.265000e-001
         vertex -4.016745e-002 -1.335848e-001 1.250000e-001
         vertex -4.016745e-002 -1.335848e-001 1.265000e-001
      endloop
   endfacet
   facet normal 1.000000e+000 0.000000e+000 0.000000e+000
      outer loop
         vertex -4.616745e-002 -1.275848e-001 1.250000e-001
         vertex -4.616745e-002 -1.098848e-001 1.250000e-001
         vertex -4.616745e-002 -1.275848e-001 1.265000e-001
      endloop
   endfacet
   facet normal 1.000000e+000 -0.000000e+000 0.000000e+000
      outer loop
         vertex -4.616745e-002 -1.275848e-001 1.265000e-001
         vertex -4.616745e-002 -1.098848e-001 1.250000e-001
         vertex -4.616745e-002 -1.098848e-001 1.265000e-001
      endloop
   endfacet
   facet normal 0.000000e+000 -1.000000e+000 0.000000e+000
      outer loop
         vertex -4.016745e-002 -1.038847e-001 1.250000e-001
         vertex -1.504245e-002 -1.038847e-001 1.250000e-001
         vertex -4.016745e-002 -1.038847e-001 1.265000e-001
      endloop
   endfacet
   facet normal 0.000000e+000 -1.000000e+000 0.000000e+000
      outer loop
         vertex -4.016745e-002 -1.038847e-001 1.265000e-001
         vertex -1.504245e-002 -1.038847e-001 1.250000e-001
         vertex -1.504245e-002 -1.038847e-001 1.265000e-001
      endloop
   endfacet
   facet normal 1.000000e+000 0.000000e+000 0.000000e+000
      outer loop
         vertex -9.042447e-003 -9.788475e-002 1.250000e-001
         vertex -9.042447e-003 -8.018475e-002 1.250000e-001
         vertex -9.042447e-003 -9.788475e-002 1.265000e-001
      endloop
   endfacet
   facet normal 1.000000e+000 -0.000000e+000 0.000000e+000
      outer loop
         vertex -9.042447e-003 -9.788475e-002 1.265000e-001
         vertex -9.042447e-003 -8.018475e-002 1.250000e-001
         vertex -9.042447e-003 -8.018475e-002 1.265000e-001
      endloop
   endfacet
   facet normal 0.000000e+000 0.000000e+000 1.000000e+000
      outer loop
         vertex 6.611402e-003 -1.008848e-001 1.265000e-001
         vertex 8.807550e-003 -1.030809e-001 1.265000e-001
         vertex 1.180755e-002 -1.038847e-001 1.265000e-001
      endloop
   endfacet
   facet normal 0.000000e+000 0.000000e+000 1.000000e+000
      outer loop
         vertex 7.182870e-002 -7.718475e-002 1.265000e-001
         vertex 6.963255e-002 -7.498860e-002 1.265000e-001
         vertex 6.663255e-002 -7.418475e-002 1.265000e-001
      endloop
   endfacet
   facet normal 0.000000e+000 0.000000e+000 1.000000e+000
      outer loop
         vertex 8.807550e-003 -1.558860e-002 1.265000e-001
         vertex 6.611402e-003 -1.778475e-002 1.265000e-001
         vertex 5.807552e-003 -2.078475e-002 1.265000e-001
      endloop
   endfacet
   facet normal 0.000000e+000 0.000000e+000 1.000000e+000
      outer loop
         vertex 7.263254e-002 -8.018475e-002 1.265000e-001
         vertex 7.182870e-002 -7.718475e-002 1.265000e-001
         vertex 3.993255e-002 -1.046886e-001 1.265000e-001
      endloop
   endfacet
   facet normal 0.000000e+000 0.000000e+000 1.000000e+000
      outer loop
         vertex 3.993255e-002 -1.046886e-001 1.265000e-001
         vertex 7.182870e-002 -7.718475e-002 1.265000e-001
         vertex 6.663255e-002 -7.418475e-002 1.265000e-001
      endloop
   endfacet
   facet normal 0.000000e+000 -0.000000e+000 1.000000e+000
      outer loop
         vertex 3.993255e-002 -1.046886e-001 1.265000e-001
         vertex 6.663255e-002 -7.418475e-002 1.265000e-001
         vertex 3.693255e-002 -1.038847e-001 1.265000e-001
      endloop
   endfacet
   facet normal 0.000000e+000 0.000000e+000 1.000000e+000
      outer loop
         vertex 3.693255e-002 -1.038847e-001 1.265000e-001
         vertex 6.663255e-002 -7.418475e-002 1.265000e-001
         vertex 4.150755e-002 -7.418475e-002 1.265000e-001
      endloop
   endfacet
   facet normal 0.000000e+000 -0.000000e+000 1.000000e+000
      outer loop
         vertex 3.693255e-002 -1.038847e-001 1.265000e-001
         vertex 4.150755e-002 -7.418475e-002 1.265000e-001
         vertex 1.180755e-002 -1.038847e-001 1.265000e-001
      endloop
   endfacet
   facet normal 0.000000e+000 0.000000e+000 1.000000e+000
      outer loop
         vertex 1.180755e-002 -1.038847e-001 1.265000e-001
         vertex 4.150755e-002 -7.418475e-002 1.265000e-001
         vertex 3.850755e-002 -7.338090e-002 1.265000e-001
      endloop
   endfacet
   facet normal 0.000000e+000 -0.000000e+000 1.000000e+000
      outer loop
         vertex 1.180755e-002 -1.038847e-001 1.265000e-001
         vertex 3.850755e-002 -7.338090e-002 1.265000e-001
         vertex 6.611402e-003 -1.008848e-001 1.265000e-001
      endloop
   endfacet
   facet normal 0.000000e+000 -0.000000e+000 1.000000e+000
      outer loop
         vertex 6.611402e-003 -1.008848e-001 1.265000e-001
         vertex 3.850755e-002 -7.338090e-002 1.265000e-001
         vertex 5.807552e-003 -9.788475e-002 1.265000e-001
      endloop
   endfacet
   facet normal 0.000000e+000 0.000000e+000 1.000000e+000
      outer loop
         vertex 3.850755e-002 -7.338090e-002 1.265000e-001
         vertex 3.631140e-002 -7.118475e-002 1.265000e-001
         vertex 5.807552e-003 -9.788475e-002 1.265000e-001
      endloop
   endfacet
   facet normal 0.000000e+000 0.000000e+000 1.000000e+000
      outer loop
         vertex 5.807552e-003 -9.788475e-002 1.265000e-001
         vertex 3.631140e-002 -7.118475e-002 1.265000e-001
         vertex 3.550755e-002 -6.818475e-002 1.265000e-001
      endloop
   endfacet
   facet normal 0.000000e+000 0.000000e+000 1.000000e+000
      outer loop
         vertex 5.807552e-003 -9.788475e-002 1.265000e-001
         vertex 3.550755e-002 -6.818475e-002 1.265000e-001
         vertex 5.807552e-003 -2.078475e-002 1.265000e-001
      endloop
   endfacet
   facet normal 0.000000e+000 0.000000e+000 1.000000e+000
      outer loop
         vertex 1.180755e-002 -1.478476e-002 1.265000e-001
         vertex 8.807550e-003 -1.558860e-002 1.265000e-001
         vertex 3.631140e-002 -4.748475e-002 1.265000e-001
      endloop
   endfacet
   facet normal 0.000000e+000 0.000000e+000 1.000000e+000
      outer loop
         vertex 3.631140e-002 -4.748475e-002 1.265000e-001
         vertex 8.807550e-003 -1.558860e-002 1.265000e-001
         vertex 5.807552e-003 -2.078475e-002 1.265000e-001
      endloop
   endfacet
   facet normal 0.000000e+000 0.000000e+000 1.000000e+000
      outer loop
         vertex 3.631140e-002 -4.748475e-002 1.265000e-001
         vertex 5.807552e-003 -2.078475e-002 1.265000e-001
         vertex 3.550755e-002 -5.048475e-002 1.265000e-001
      endloop
   endfacet
   facet normal 0.000000e+000 0.000000e+000 1.000000e+000
      outer loop
         vertex 3.550755e-002 -5.048475e-002 1.265000e-001
         vertex 5.807552e-003 -2.078475e-002 1.265000e-001
         vertex 3.550755e-002 -6.818475e-002 1.265000e-001
      endloop
   endfacet
   facet normal -0.000000e+000 -0.000000e+000 1.000000e+000
      outer loop
         vertex -7.286745e-002 -1.624809e-001 1.265000e-001
         vertex -6.986745e-002 -1.632847e-001 1.265000e-001
         vertex -7.506360e-002 -1.602848e-001 1.265000e-001
      endloop
   endfacet
   facet normal -0.000000e+000 0.000000e+000 1.000000e+000
      outer loop
         vertex -7.506360e-002 -1.602848e-001 1.265000e-001
         vertex -6.986745e-002 -1.632847e-001 1.265000e-001
         vertex -4.316745e-002 -1.327809e-001 1.265000e-001
      endloop
   endfacet
   facet normal 0.000000e+000 -0.000000e+000 1.000000e+000
      outer loop
         vertex -7.506360e-002 -1.602848e-001 1.265000e-001
         vertex -4.316745e-002 -1.327809e-001 1.265000e-001
         vertex -7.586745e-002 -1.572848e-001 1.265000e-001
      endloop
   endfacet
   facet normal -0.000000e+000 0.000000e+000 1.000000e+000
      outer loop
         vertex -7.506360e-002 -7.718475e-002 1.265000e-001
         vertex -7.586745e-002 -8.018475e-002 1.265000e-001
         vertex -7.286745e-002 -7.498860e-002 1.265000e-001
      endloop
   endfacet
   facet normal 0.000000e+000 0.000000e+000 1.000000e+000
      outer loop
         vertex -7.286745e-002 -7.498860e-002 1.265000e-001
         vertex -7.586745e-002 -8.018475e-002 1.265000e-001
         vertex -4.536360e-002 -1.068847e-001 1.265000e-001
      endloop
   endfacet
   facet normal -0.000000e+000 0.000000e+000 1.000000e+000
      outer loop
         vertex -7.286745e-002 -7.498860e-002 1.265000e-001
         vertex -4.536360e-002 -1.068847e-001 1.265000e-001
         vertex -6.986745e-002 -7.418475e-002 1.265000e-001
      endloop
   endfacet
   facet normal 0.000000e+000 0.000000e+000 1.000000e+000
      outer loop
         vertex -6.986745e-002 -7.418475e-002 1.265000e-001
         vertex -4.536360e-002 -1.068847e-001 1.265000e-001
         vertex -4.316745e-002 -1.046886e-001 1.265000e-001
      endloop
   endfacet
   facet normal 0.000000e+000 -0.000000e+000 1.000000e+000
      outer loop
         vertex -1.204245e-002 -1.030809e-001 1.265000e-001
         vertex -9.846297e-003 -1.008848e-001 1.265000e-001
         vertex -1.504245e-002 -1.038847e-001 1.265000e-001
      endloop
   endfacet
   facet normal 0.000000e+000 0.000000e+000 1.000000e+000
      outer loop
         vertex -1.504245e-002 -1.038847e-001 1.265000e-001
         vertex -9.846297e-003 -1.008848e-001 1.265000e-001
         vertex -9.042447e-003 -9.788475e-002 1.265000e-001
      endloop
   endfacet
   facet normal 0.000000e+000 -0.000000e+000 1.000000e+000
      outer loop
         vertex -1.504245e-002 -1.038847e-001 1.265000e-001
         vertex -9.042447e-003 -9.788475e-002 1.265000e-001
         vertex -4.016745e-002 -1.038847e-001 1.265000e-001
      endloop
   endfacet
   facet normal 0.000000e+000 -0.000000e+000 1.000000e+000
      outer loop
         vertex 7.182870e-002 -1.602848e-001 1.265000e-001
         vertex 7.263254e-002 -1.572848e-001 1.265000e-001
         vertex 6.963255e-002 -1.624809e-001 1.265000e-001
      endloop
   endfacet
   facet normal 0.000000e+000 -0.000000e+000 1.000000e+000
      outer loop
         vertex 6.963255e-002 -1.624809e-001 1.265000e-001
         vertex 7.263254e-002 -1.572848e-001 1.265000e-001
         vertex 4.212870e-002 -1.305847e-001 1.265000e-001
      endloop
   endfacet
   facet normal 0.000000e+000 0.000000e+000 1.000000e+000
      outer loop
         vertex 6.963255e-002 -1.624809e-001 1.265000e-001
         vertex 4.212870e-002 -1.305847e-001 1.265000e-001
         vertex 6.663255e-002 -1.632847e-001 1.265000e-001
      endloop
   endfacet
   facet normal 0.000000e+000 -0.000000e+000 1.000000e+000
      outer loop
         vertex 3.631140e-002 -4.748475e-002 1.265000e-001
         vertex 3.850755e-002 -4.528860e-002 1.265000e-001
         vertex 1.180755e-002 -1.478476e-002 1.265000e-001
      endloop
   endfacet
   facet normal 0.000000e+000 0.000000e+000 1.000000e+000
      outer loop
         vertex 1.180755e-002 -1.478476e-002 1.265000e-001
         vertex 3.850755e-002 -4.528860e-002 1.265000e-001
         vertex 4.150755e-002 -4.448475e-002 1.265000e-001
      endloop
   endfacet
   facet normal -0.000000e+000 0.000000e+000 1.000000e+000
      outer loop
         vertex 1.180755e-002 -1.478476e-002 1.265000e-001
         vertex 4.150755e-002 -4.448475e-002 1.265000e-001
         vertex 6.663255e-002 -1.478476e-002 1.265000e-001
      endloop
   endfacet
   facet normal 0.000000e+000 0.000000e+000 1.000000e+000
      outer loop
         vertex 6.663255e-002 -1.478476e-002 1.265000e-001
         vertex 4.150755e-002 -4.448475e-002 1.265000e-001
         vertex 6.663255e-002 -4.448475e-002 1.265000e-001
      endloop
   endfacet
   facet normal 0.000000e+000 0.000000e+000 1.000000e+000
      outer loop
         vertex 4.212870e-002 -1.305847e-001 1.265000e-001
         vertex 3.993255e-002 -1.327809e-001 1.265000e-001
         vertex 6.663255e-002 -1.632847e-001 1.265000e-001
      endloop
   endfacet
   facet normal 0.000000e+000 0.000000e+000 1.000000e+000
      outer loop
         vertex 6.663255e-002 -1.632847e-001 1.265000e-001
         vertex 3.993255e-002 -1.327809e-001 1.265000e-001
         vertex 3.693255e-002 -1.335848e-001 1.265000e-001
      endloop
   endfacet
   facet normal 0.000000e+000 0.000000e+000 1.000000e+000
      outer loop
         vertex 6.663255e-002 -1.632847e-001 1.265000e-001
         vertex 3.693255e-002 -1.335848e-001 1.265000e-001
         vertex -6.986745e-002 -1.632847e-001 1.265000e-001
      endloop
   endfacet
   facet normal 0.000000e+000 0.000000e+000 1.000000e+000
      outer loop
         vertex -6.986745e-002 -1.632847e-001 1.265000e-001
         vertex 3.693255e-002 -1.335848e-001 1.265000e-001
         vertex -4.016745e-002 -1.335848e-001 1.265000e-001
      endloop
   endfacet
   facet normal 0.000000e+000 0.000000e+000 1.000000e+000
      outer loop
         vertex -6.986745e-002 -1.632847e-001 1.265000e-001
         vertex -4.016745e-002 -1.335848e-001 1.265000e-001
         vertex -4.316745e-002 -1.327809e-001 1.265000e-001
      endloop
   endfacet
   facet normal 0.000000e+000 0.000000e+000 1.000000e+000
      outer loop
         vertex -4.316745e-002 -1.327809e-001 1.265000e-001
         vertex -4.536360e-002 -1.305847e-001 1.265000e-001
         vertex -7.586745e-002 -1.572848e-001 1.265000e-001
      endloop
   endfacet
   facet normal 0.000000e+000 0.000000e+000 1.000000e+000
      outer loop
         vertex -7.586745e-002 -1.572848e-001 1.265000e-001
         vertex -4.536360e-002 -1.305847e-001 1.265000e-001
         vertex -4.616745e-002 -1.275848e-001 1.265000e-001
      endloop
   endfacet
   facet normal 0.000000e+000 0.000000e+000 1.000000e+000
      outer loop
         vertex -7.586745e-002 -1.572848e-001 1.265000e-001
         vertex -4.616745e-002 -1.275848e-001 1.265000e-001
         vertex -7.586745e-002 -8.018475e-002 1.265000e-001
      endloop
   endfacet
   facet normal 0.000000e+000 0.000000e+000 1.000000e+000
      outer loop
         vertex -7.586745e-002 -8.018475e-002 1.265000e-001
         vertex -4.616745e-002 -1.275848e-001 1.265000e-001
         vertex -4.616745e-002 -1.098848e-001 1.265000e-001
      endloop
   endfacet
   facet normal 0.000000e+000 0.000000e+000 1.000000e+000
      outer loop
         vertex -7.586745e-002 -8.018475e-002 1.265000e-001
         vertex -4.616745e-002 -1.098848e-001 1.265000e-001
         vertex -4.536360e-002 -1.068847e-001 1.265000e-001
      endloop
   endfacet
   facet normal 0.000000e+000 0.000000e+000 1.000000e+000
      outer loop
         vertex -9.846297e-003 -7.718475e-002 1.265000e-001
         vertex -1.204245e-002 -7.498860e-002 1.265000e-001
         vertex -9.042447e-003 -8.018475e-002 1.265000e-001
      endloop
   endfacet
   facet normal 0.000000e+000 0.000000e+000 1.000000e+000
      outer loop
         vertex -9.042447e-003 -8.018475e-002 1.265000e-001
         vertex -1.204245e-002 -7.498860e-002 1.265000e-001
         vertex -1.504245e-002 -7.418475e-002 1.265000e-001
      endloop
   endfacet
   facet normal 0.000000e+000 0.000000e+000 1.000000e+000
      outer loop
         vertex -9.042447e-003 -8.018475e-002 1.265000e-001
         vertex -1.504245e-002 -7.418475e-002 1.265000e-001
         vertex -9.042447e-003 -9.788475e-002 1.265000e-001
      endloop
   endfacet
   facet normal 0.000000e+000 0.000000e+000 1.000000e+000
      outer loop
         vertex -9.042447e-003 -9.788475e-002 1.265000e-001
         vertex -1.504245e-002 -7.418475e-002 1.265000e-001
         vertex -6.986745e-002 -7.418475e-002 1.265000e-001
      endloop
   endfacet
   facet normal 0.000000e+000 0.000000e+000 1.000000e+000
      outer loop
         vertex -9.042447e-003 -9.788475e-002 1.265000e-001
         vertex -6.986745e-002 -7.418475e-002 1.265000e-001
         vertex -4.016745e-002 -1.038847e-001 1.265000e-001
      endloop
   endfacet
   facet normal 0.000000e+000 0.000000e+000 1.000000e+000
      outer loop
         vertex -4.016745e-002 -1.038847e-001 1.265000e-001
         vertex -6.986745e-002 -7.418475e-002 1.265000e-001
         vertex -4.316745e-002 -1.046886e-001 1.265000e-001
      endloop
   endfacet
   facet normal -0.000000e+000 0.000000e+000 1.000000e+000
      outer loop
         vertex 3.993255e-002 -1.046886e-001 1.265000e-001
         vertex 4.212870e-002 -1.068847e-001 1.265000e-001
         vertex 7.263254e-002 -8.018475e-002 1.265000e-001
      endloop
   endfacet
   facet normal 0.000000e+000 0.000000e+000 1.000000e+000
      outer loop
         vertex 7.263254e-002 -8.018475e-002 1.265000e-001
         vertex 4.212870e-002 -1.068847e-001 1.265000e-001
         vertex 4.293255e-002 -1.098848e-001 1.265000e-001
      endloop
   endfacet
   facet normal 0.000000e+000 0.000000e+000 1.000000e+000
      outer loop
         vertex 7.263254e-002 -8.018475e-002 1.265000e-001
         vertex 4.293255e-002 -1.098848e-001 1.265000e-001
         vertex 7.263254e-002 -1.572848e-001 1.265000e-001
      endloop
   endfacet
   facet normal 0.000000e+000 0.000000e+000 1.000000e+000
      outer loop
         vertex 7.263254e-002 -1.572848e-001 1.265000e-001
         vertex 4.293255e-002 -1.098848e-001 1.265000e-001
         vertex 4.293255e-002 -1.275848e-001 1.265000e-001
      endloop
   endfacet
   facet normal 0.000000e+000 0.000000e+000 1.000000e+000
      outer loop
         vertex 7.263254e-002 -1.572848e-001 1.265000e-001
         vertex 4.293255e-002 -1.275848e-001 1.265000e-001
         vertex 4.212870e-002 -1.305847e-001 1.265000e-001
      endloop
   endfacet
   facet normal 0.000000e+000 0.000000e+000 1.000000e+000
      outer loop
         vertex 7.182870e-002 -1.778475e-002 1.265000e-001
         vertex 6.963255e-002 -1.558860e-002 1.265000e-001
         vertex 7.263254e-002 -2.078475e-002 1.265000e-001
      endloop
   endfacet
   facet normal 0.000000e+000 0.000000e+000 1.000000e+000
      outer loop
         vertex 7.263254e-002 -2.078475e-002 1.265000e-001
         vertex 6.963255e-002 -1.558860e-002 1.265000e-001
         vertex 6.663255e-002 -1.478476e-002 1.265000e-001
      endloop
   endfacet
   facet normal 0.000000e+000 0.000000e+000 1.000000e+000
      outer loop
         vertex 7.263254e-002 -2.078475e-002 1.265000e-001
         vertex 6.663255e-002 -1.478476e-002 1.265000e-001
         vertex 7.263254e-002 -3.848476e-002 1.265000e-001
      endloop
   endfacet
   facet normal 0.000000e+000 0.000000e+000 1.000000e+000
      outer loop
         vertex 7.263254e-002 -3.848476e-002 1.265000e-001
         vertex 6.663255e-002 -1.478476e-002 1.265000e-001
         vertex 6.663255e-002 -4.448475e-002 1.265000e-001
      endloop
   endfacet
   facet normal 0.000000e+000 0.000000e+000 1.000000e+000
      outer loop
         vertex 7.263254e-002 -3.848476e-002 1.265000e-001
         vertex 6.663255e-002 -4.448475e-002 1.265000e-001
         vertex 7.182870e-002 -4.148475e-002 1.265000e-001
      endloop
   endfacet
   facet normal 0.000000e+000 0.000000e+000 1.000000e+000
      outer loop
         vertex 7.182870e-002 -4.148475e-002 1.265000e-001
         vertex 6.663255e-002 -4.448475e-002 1.265000e-001
         vertex 6.963255e-002 -4.368090e-002 1.265000e-001
      endloop
   endfacet
   facet normal 0.000000e+000 -0.000000e+000 -1.000000e+000
      outer loop
         vertex 8.807550e-003 -1.558860e-002 1.250000e-001
         vertex 1.180755e-002 -1.478476e-002 1.250000e-001
         vertex 6.611402e-003 -1.778475e-002 1.250000e-001
      endloop
   endfacet
   facet normal 0.000000e+000 0.000000e+000 -1.000000e+000
      outer loop
         vertex 6.611402e-003 -1.778475e-002 1.250000e-001
         vertex 1.180755e-002 -1.478476e-002 1.250000e-001
         vertex 3.850755e-002 -4.528860e-002 1.250000e-001
      endloop
   endfacet
   facet normal 0.000000e+000 -0.000000e+000 -1.000000e+000
      outer loop
         vertex 6.611402e-003 -1.778475e-002 1.250000e-001
         vertex 3.850755e-002 -4.528860e-002 1.250000e-001
         vertex 5.807552e-003 -2.078475e-002 1.250000e-001
      endloop
   endfacet
   facet normal 0.000000e+000 0.000000e+000 -1.000000e+000
      outer loop
         vertex 7.182870e-002 -1.602848e-001 1.250000e-001
         vertex 6.963255e-002 -1.624809e-001 1.250000e-001
         vertex 6.663255e-002 -1.632847e-001 1.250000e-001
      endloop
   endfacet
   facet normal -0.000000e+000 -0.000000e+000 -1.000000e+000
      outer loop
         vertex -1.204245e-002 -7.498860e-002 1.250000e-001
         vertex -9.846297e-003 -7.718475e-002 1.250000e-001
         vertex -1.504245e-002 -7.418475e-002 1.250000e-001
      endloop
   endfacet
   facet normal 0.000000e+000 0.000000e+000 -1.000000e+000
      outer loop
         vertex -1.504245e-002 -7.418475e-002 1.250000e-001
         vertex -9.846297e-003 -7.718475e-002 1.250000e-001
         vertex -9.042447e-003 -8.018475e-002 1.250000e-001
      endloop
   endfacet
   facet normal 0.000000e+000 0.000000e+000 -1.000000e+000
      outer loop
         vertex -1.504245e-002 -1.038847e-001 1.250000e-001
         vertex -4.016745e-002 -1.038847e-001 1.250000e-001
         vertex -6.986745e-002 -7.418475e-002 1.250000e-001
      endloop
   endfacet
   facet normal 0.000000e+000 0.000000e+000 -1.000000e+000
      outer loop
         vertex -6.986745e-002 -7.418475e-002 1.250000e-001
         vertex -4.016745e-002 -1.038847e-001 1.250000e-001
         vertex -4.316745e-002 -1.046886e-001 1.250000e-001
      endloop
   endfacet
   facet normal 0.000000e+000 -0.000000e+000 -1.000000e+000
      outer loop
         vertex -6.986745e-002 -7.418475e-002 1.250000e-001
         vertex -4.316745e-002 -1.046886e-001 1.250000e-001
         vertex -7.286745e-002 -7.498860e-002 1.250000e-001
      endloop
   endfacet
   facet normal 0.000000e+000 0.000000e+000 -1.000000e+000
      outer loop
         vertex -7.286745e-002 -7.498860e-002 1.250000e-001
         vertex -4.316745e-002 -1.046886e-001 1.250000e-001
         vertex -4.536360e-002 -1.068847e-001 1.250000e-001
      endloop
   endfacet
   facet normal 0.000000e+000 -0.000000e+000 -1.000000e+000
      outer loop
         vertex -7.286745e-002 -7.498860e-002 1.250000e-001
         vertex -4.536360e-002 -1.068847e-001 1.250000e-001
         vertex -7.506360e-002 -7.718475e-002 1.250000e-001
      endloop
   endfacet
   facet normal 0.000000e+000 0.000000e+000 -1.000000e+000
      outer loop
         vertex -7.586745e-002 -1.572848e-001 1.250000e-001
         vertex -4.536360e-002 -1.305847e-001 1.250000e-001
         vertex -7.506360e-002 -1.602848e-001 1.250000e-001
      endloop
   endfacet
   facet normal 0.000000e+000 0.000000e+000 -1.000000e+000
      outer loop
         vertex -7.506360e-002 -1.602848e-001 1.250000e-001
         vertex -4.536360e-002 -1.305847e-001 1.250000e-001
         vertex -4.316745e-002 -1.327809e-001 1.250000e-001
      endloop
   endfacet
   facet normal 0.000000e+000 0.000000e+000 -1.000000e+000
      outer loop
         vertex -7.506360e-002 -1.602848e-001 1.250000e-001
         vertex -4.316745e-002 -1.327809e-001 1.250000e-001
         vertex -7.286745e-002 -1.624809e-001 1.250000e-001
      endloop
   endfacet
   facet normal 0.000000e+000 0.000000e+000 -1.000000e+000
      outer loop
         vertex -7.286745e-002 -1.624809e-001 1.250000e-001
         vertex -4.316745e-002 -1.327809e-001 1.250000e-001
         vertex -6.986745e-002 -1.632847e-001 1.250000e-001
      endloop
   endfacet
   facet normal 0.000000e+000 0.000000e+000 -1.000000e+000
      outer loop
         vertex -6.986745e-002 -1.632847e-001 1.250000e-001
         vertex -4.316745e-002 -1.327809e-001 1.250000e-001
         vertex -4.016745e-002 -1.335848e-001 1.250000e-001
      endloop
   endfacet
   facet normal 0.000000e+000 0.000000e+000 -1.000000e+000
      outer loop
         vertex -6.986745e-002 -1.632847e-001 1.250000e-001
         vertex -4.016745e-002 -1.335848e-001 1.250000e-001
         vertex 6.663255e-002 -1.632847e-001 1.250000e-001
      endloop
   endfacet
   facet normal -0.000000e+000 -0.000000e+000 -1.000000e+000
      outer loop
         vertex 6.663255e-002 -1.478476e-002 1.250000e-001
         vertex 6.663255e-002 -4.448475e-002 1.250000e-001
         vertex 1.180755e-002 -1.478476e-002 1.250000e-001
      endloop
   endfacet
   facet normal 0.000000e+000 0.000000e+000 -1.000000e+000
      outer loop
         vertex 1.180755e-002 -1.478476e-002 1.250000e-001
         vertex 6.663255e-002 -4.448475e-002 1.250000e-001
         vertex 4.150755e-002 -4.448475e-002 1.250000e-001
      endloop
   endfacet
   facet normal 0.000000e+000 0.000000e+000 -1.000000e+000
      outer loop
         vertex 1.180755e-002 -1.478476e-002 1.250000e-001
         vertex 4.150755e-002 -4.448475e-002 1.250000e-001
         vertex 3.850755e-002 -4.528860e-002 1.250000e-001
      endloop
   endfacet
   facet normal -0.000000e+000 0.000000e+000 -1.000000e+000
      outer loop
         vertex -9.846297e-003 -1.008848e-001 1.250000e-001
         vertex -1.204245e-002 -1.030809e-001 1.250000e-001
         vertex -9.042447e-003 -9.788475e-002 1.250000e-001
      endloop
   endfacet
   facet normal 0.000000e+000 0.000000e+000 -1.000000e+000
      outer loop
         vertex -9.042447e-003 -9.788475e-002 1.250000e-001
         vertex -1.204245e-002 -1.030809e-001 1.250000e-001
         vertex -1.504245e-002 -1.038847e-001 1.250000e-001
      endloop
   endfacet
   facet normal -0.000000e+000 0.000000e+000 -1.000000e+000
      outer loop
         vertex -9.042447e-003 -9.788475e-002 1.250000e-001
         vertex -1.504245e-002 -1.038847e-001 1.250000e-001
         vertex -9.042447e-003 -8.018475e-002 1.250000e-001
      endloop
   endfacet
   facet normal -0.000000e+000 0.000000e+000 -1.000000e+000
      outer loop
         vertex -9.042447e-003 -8.018475e-002 1.250000e-001
         vertex -1.504245e-002 -1.038847e-001 1.250000e-001
         vertex -6.986745e-002 -7.418475e-002 1.250000e-001
      endloop
   endfacet
   facet normal 0.000000e+000 0.000000e+000 -1.000000e+000
      outer loop
         vertex -9.042447e-003 -8.018475e-002 1.250000e-001
         vertex -6.986745e-002 -7.418475e-002 1.250000e-001
         vertex -1.504245e-002 -7.418475e-002 1.250000e-001
      endloop
   endfacet
   facet normal 0.000000e+000 -0.000000e+000 -1.000000e+000
      outer loop
         vertex -7.506360e-002 -7.718475e-002 1.250000e-001
         vertex -4.536360e-002 -1.068847e-001 1.250000e-001
         vertex -7.586745e-002 -8.018475e-002 1.250000e-001
      endloop
   endfacet
   facet normal 0.000000e+000 0.000000e+000 -1.000000e+000
      outer loop
         vertex -7.586745e-002 -8.018475e-002 1.250000e-001
         vertex -4.536360e-002 -1.068847e-001 1.250000e-001
         vertex -4.616745e-002 -1.098848e-001 1.250000e-001
      endloop
   endfacet
   facet normal 0.000000e+000 0.000000e+000 -1.000000e+000
      outer loop
         vertex -7.586745e-002 -8.018475e-002 1.250000e-001
         vertex -4.616745e-002 -1.098848e-001 1.250000e-001
         vertex -7.586745e-002 -1.572848e-001 1.250000e-001
      endloop
   endfacet
   facet normal 0.000000e+000 0.000000e+000 -1.000000e+000
      outer loop
         vertex -7.586745e-002 -1.572848e-001 1.250000e-001
         vertex -4.616745e-002 -1.098848e-001 1.250000e-001
         vertex -4.616745e-002 -1.275848e-001 1.250000e-001
      endloop
   endfacet
   facet normal 0.000000e+000 0.000000e+000 -1.000000e+000
      outer loop
         vertex -7.586745e-002 -1.572848e-001 1.250000e-001
         vertex -4.616745e-002 -1.275848e-001 1.250000e-001
         vertex -4.536360e-002 -1.305847e-001 1.250000e-001
      endloop
   endfacet
   facet normal -0.000000e+000 0.000000e+000 -1.000000e+000
      outer loop
         vertex 7.263254e-002 -1.572848e-001 1.250000e-001
         vertex 7.182870e-002 -1.602848e-001 1.250000e-001
         vertex 3.993255e-002 -1.327809e-001 1.250000e-001
      endloop
   endfacet
   facet normal 0.000000e+000 0.000000e+000 -1.000000e+000
      outer loop
         vertex 3.993255e-002 -1.327809e-001 1.250000e-001
         vertex 7.182870e-002 -1.602848e-001 1.250000e-001
         vertex 6.663255e-002 -1.632847e-001 1.250000e-001
      endloop
   endfacet
   facet normal 0.000000e+000 -0.000000e+000 -1.000000e+000
      outer loop
         vertex 3.993255e-002 -1.327809e-001 1.250000e-001
         vertex 6.663255e-002 -1.632847e-001 1.250000e-001
         vertex 3.693255e-002 -1.335848e-001 1.250000e-001
      endloop
   endfacet
   facet normal -0.000000e+000 -0.000000e+000 -1.000000e+000
      outer loop
         vertex 3.693255e-002 -1.335848e-001 1.250000e-001
         vertex 6.663255e-002 -1.632847e-001 1.250000e-001
         vertex -4.016745e-002 -1.335848e-001 1.250000e-001
      endloop
   endfacet
   facet normal -0.000000e+000 0.000000e+000 -1.000000e+000
      outer loop
         vertex 3.850755e-002 -4.528860e-002 1.250000e-001
         vertex 3.631140e-002 -4.748475e-002 1.250000e-001
         vertex 5.807552e-003 -2.078475e-002 1.250000e-001
      endloop
   endfacet
   facet normal 0.000000e+000 0.000000e+000 -1.000000e+000
      outer loop
         vertex 5.807552e-003 -2.078475e-002 1.250000e-001
         vertex 3.631140e-002 -4.748475e-002 1.250000e-001
         vertex 3.550755e-002 -5.048475e-002 1.250000e-001
      endloop
   endfacet
   facet normal 0.000000e+000 0.000000e+000 -1.000000e+000
      outer loop
         vertex 5.807552e-003 -2.078475e-002 1.250000e-001
         vertex 3.550755e-002 -5.048475e-002 1.250000e-001
         vertex 5.807552e-003 -9.788475e-002 1.250000e-001
      endloop
   endfacet
   facet normal 0.000000e+000 0.000000e+000 -1.000000e+000
      outer loop
         vertex 5.807552e-003 -9.788475e-002 1.250000e-001
         vertex 3.550755e-002 -5.048475e-002 1.250000e-001
         vertex 3.550755e-002 -6.818475e-002 1.250000e-001
      endloop
   endfacet
   facet normal 0.000000e+000 0.000000e+000 -1.000000e+000
      outer loop
         vertex 5.807552e-003 -9.788475e-002 1.250000e-001
         vertex 3.550755e-002 -6.818475e-002 1.250000e-001
         vertex 3.631140e-002 -7.118475e-002 1.250000e-001
      endloop
   endfacet
   facet normal -0.000000e+000 -0.000000e+000 -1.000000e+000
      outer loop
         vertex 7.182870e-002 -7.718475e-002 1.250000e-001
         vertex 7.263254e-002 -8.018475e-002 1.250000e-001
         vertex 6.963255e-002 -7.498860e-002 1.250000e-001
      endloop
   endfacet
   facet normal 0.000000e+000 -0.000000e+000 -1.000000e+000
      outer loop
         vertex 6.963255e-002 -7.498860e-002 1.250000e-001
         vertex 7.263254e-002 -8.018475e-002 1.250000e-001
         vertex 4.212870e-002 -1.068847e-001 1.250000e-001
      endloop
   endfacet
   facet normal -0.000000e+000 0.000000e+000 -1.000000e+000
      outer loop
         vertex 6.963255e-002 -7.498860e-002 1.250000e-001
         vertex 4.212870e-002 -1.068847e-001 1.250000e-001
         vertex 6.663255e-002 -7.418475e-002 1.250000e-001
      endloop
   endfacet
   facet normal 0.000000e+000 0.000000e+000 -1.000000e+000
      outer loop
         vertex 6.663255e-002 -7.418475e-002 1.250000e-001
         vertex 4.212870e-002 -1.068847e-001 1.250000e-001
         vertex 3.993255e-002 -1.046886e-001 1.250000e-001
      endloop
   endfacet
   facet normal -0.000000e+000 0.000000e+000 -1.000000e+000
      outer loop
         vertex 6.663255e-002 -7.418475e-002 1.250000e-001
         vertex 3.993255e-002 -1.046886e-001 1.250000e-001
         vertex 4.150755e-002 -7.418475e-002 1.250000e-001
      endloop
   endfacet
   facet normal 0.000000e+000 0.000000e+000 -1.000000e+000
      outer loop
         vertex 4.150755e-002 -7.418475e-002 1.250000e-001
         vertex 3.993255e-002 -1.046886e-001 1.250000e-001
         vertex 3.693255e-002 -1.038847e-001 1.250000e-001
      endloop
   endfacet
   facet normal -0.000000e+000 0.000000e+000 -1.000000e+000
      outer loop
         vertex 4.150755e-002 -7.418475e-002 1.250000e-001
         vertex 3.693255e-002 -1.038847e-001 1.250000e-001
         vertex 3.850755e-002 -7.338090e-002 1.250000e-001
      endloop
   endfacet
   facet normal 0.000000e+000 0.000000e+000 -1.000000e+000
      outer loop
         vertex 3.850755e-002 -7.338090e-002 1.250000e-001
         vertex 3.693255e-002 -1.038847e-001 1.250000e-001
         vertex 1.180755e-002 -1.038847e-001 1.250000e-001
      endloop
   endfacet
   facet normal -0.000000e+000 0.000000e+000 -1.000000e+000
      outer loop
         vertex 3.850755e-002 -7.338090e-002 1.250000e-001
         vertex 1.180755e-002 -1.038847e-001 1.250000e-001
         vertex 3.631140e-002 -7.118475e-002 1.250000e-001
      endloop
   endfacet
   facet normal 0.000000e+000 0.000000e+000 -1.000000e+000
      outer loop
         vertex 3.631140e-002 -7.118475e-002 1.250000e-001
         vertex 1.180755e-002 -1.038847e-001 1.250000e-001
         vertex 8.807550e-003 -1.030809e-001 1.250000e-001
      endloop
   endfacet
   facet normal 0.000000e+000 0.000000e+000 -1.000000e+000
      outer loop
         vertex 3.631140e-002 -7.118475e-002 1.250000e-001
         vertex 8.807550e-003 -1.030809e-001 1.250000e-001
         vertex 5.807552e-003 -9.788475e-002 1.250000e-001
      endloop
   endfacet
   facet normal 0.000000e+000 0.000000e+000 -1.000000e+000
      outer loop
         vertex 5.807552e-003 -9.788475e-002 1.250000e-001
         vertex 8.807550e-003 -1.030809e-001 1.250000e-001
         vertex 6.611402e-003 -1.008848e-001 1.250000e-001
      endloop
   endfacet
   facet normal -0.000000e+000 0.000000e+000 -1.000000e+000
      outer loop
         vertex 7.182870e-002 -4.148475e-002 1.250000e-001
         vertex 6.963255e-002 -4.368090e-002 1.250000e-001
         vertex 7.263254e-002 -3.848476e-002 1.250000e-001
      endloop
   endfacet
   facet normal 0.000000e+000 0.000000e+000 -1.000000e+000
      outer loop
         vertex 7.263254e-002 -3.848476e-002 1.250000e-001
         vertex 6.963255e-002 -4.368090e-002 1.250000e-001
         vertex 6.663255e-002 -4.448475e-002 1.250000e-001
      endloop
   endfacet
   facet normal -0.000000e+000 0.000000e+000 -1.000000e+000
      outer loop
         vertex 7.263254e-002 -3.848476e-002 1.250000e-001
         vertex 6.663255e-002 -4.448475e-002 1.250000e-001
         vertex 7.263254e-002 -2.078475e-002 1.250000e-001
      endloop
   endfacet
   facet normal -0.000000e+000 0.000000e+000 -1.000000e+000
      outer loop
         vertex 7.263254e-002 -2.078475e-002 1.250000e-001
         vertex 6.663255e-002 -4.448475e-002 1.250000e-001
         vertex 6.663255e-002 -1.478476e-002 1.250000e-001
      endloop
   endfacet
   facet normal 0.000000e+000 0.000000e+000 -1.000000e+000
      outer loop
         vertex 7.263254e-002 -2.078475e-002 1.250000e-001
         vertex 6.663255e-002 -1.478476e-002 1.250000e-001
         vertex 7.182870e-002 -1.778475e-002 1.250000e-001
      endloop
   endfacet
   facet normal 0.000000e+000 0.000000e+000 -1.000000e+000
      outer loop
         vertex 7.182870e-002 -1.778475e-002 1.250000e-001
         vertex 6.663255e-002 -1.478476e-002 1.250000e-001
         vertex 6.963255e-002 -1.558860e-002 1.250000e-001
      endloop
   endfacet
   facet normal 0.000000e+000 0.000000e+000 -1.000000e+000
      outer loop
         vertex 3.993255e-002 -1.327809e-001 1.250000e-001
         vertex 4.212870e-002 -1.305847e-001 1.250000e-001
         vertex 7.263254e-002 -1.572848e-001 1.250000e-001
      endloop
   endfacet
   facet normal 0.000000e+000 0.000000e+000 -1.000000e+000
      outer loop
         vertex 7.263254e-002 -1.572848e-001 1.250000e-001
         vertex 4.212870e-002 -1.305847e-001 1.250000e-001
         vertex 4.293255e-002 -1.275848e-001 1.250000e-001
      endloop
   endfacet
   facet normal 0.000000e+000 0.000000e+000 -1.000000e+000
      outer loop
         vertex 7.263254e-002 -1.572848e-001 1.250000e-001
         vertex 4.293255e-002 -1.275848e-001 1.250000e-001
         vertex 7.263254e-002 -8.018475e-002 1.250000e-001
      endloop
   endfacet
   facet normal 0.000000e+000 0.000000e+000 -1.000000e+000
      outer loop
         vertex 7.263254e-002 -8.018475e-002 1.250000e-001
         vertex 4.293255e-002 -1.275848e-001 1.250000e-001
         vertex 4.293255e-002 -1.098848e-001 1.250000e-001
      endloop
   endfacet
   facet normal 0.000000e+000 0.000000e+000 -1.000000e+000
      outer loop
         vertex 7.263254e-002 -8.018475e-002 1.250000e-001
         vertex 4.293255e-002 -1.098848e-001 1.250000e-001
         vertex 4.212870e-002 -1.068847e-001 1.250000e-001
      endloop
   endfacet
   facet normal -9.659257e-001 -2.588195e-001 -0.000000e+000
      outer loop
         vertex -7.586745e-002 -1.572848e-001 1.265000e-001
         vertex -7.586745e-002 -1.572848e-001 1.250000e-001
         vertex -7.506360e-002 -1.602848e-001 1.250000e-001
      endloop
   endfacet
   facet normal -9.659257e-001 -2.588195e-001 0.000000e+000
      outer loop
         vertex -7.586745e-002 -1.572848e-001 1.265000e-001
         vertex -7.506360e-002 -1.602848e-001 1.250000e-001
         vertex -7.506360e-002 -1.602848e-001 1.265000e-001
      endloop
   endfacet
   facet normal -7.071056e-001 -7.071080e-001 -0.000000e+000
      outer loop
         vertex -7.506360e-002 -1.602848e-001 1.265000e-001
         vertex -7.506360e-002 -1.602848e-001 1.250000e-001
         vertex -7.286745e-002 -1.624809e-001 1.250000e-001
      endloop
   endfacet
   facet normal -7.071056e-001 -7.071080e-001 0.000000e+000
      outer loop
         vertex -7.506360e-002 -1.602848e-001 1.265000e-001
         vertex -7.286745e-002 -1.624809e-001 1.250000e-001
         vertex -7.286745e-002 -1.624809e-001 1.265000e-001
      endloop
   endfacet
   facet normal -2.588178e-001 -9.659262e-001 -0.000000e+000
      outer loop
         vertex -7.286745e-002 -1.624809e-001 1.265000e-001
         vertex -7.286745e-002 -1.624809e-001 1.250000e-001
         vertex -6.986745e-002 -1.632847e-001 1.250000e-001
      endloop
   endfacet
   facet normal -2.588178e-001 -9.659262e-001 0.000000e+000
      outer loop
         vertex -7.286745e-002 -1.624809e-001 1.265000e-001
         vertex -6.986745e-002 -1.632847e-001 1.250000e-001
         vertex -6.986745e-002 -1.632847e-001 1.265000e-001
      endloop
   endfacet
   facet normal 2.588172e-001 -9.659263e-001 0.000000e+000
      outer loop
         vertex 6.663255e-002 -1.632847e-001 1.265000e-001
         vertex 6.663255e-002 -1.632847e-001 1.250000e-001
         vertex 6.963255e-002 -1.624809e-001 1.250000e-001
      endloop
   endfacet
   facet normal 2.588172e-001 -9.659263e-001 0.000000e+000
      outer loop
         vertex 6.663255e-002 -1.632847e-001 1.265000e-001
         vertex 6.963255e-002 -1.624809e-001 1.250000e-001
         vertex 6.963255e-002 -1.624809e-001 1.265000e-001
      endloop
   endfacet
   facet normal 7.071068e-001 -7.071068e-001 0.000000e+000
      outer loop
         vertex 6.963255e-002 -1.624809e-001 1.265000e-001
         vertex 6.963255e-002 -1.624809e-001 1.250000e-001
         vertex 7.182870e-002 -1.602848e-001 1.250000e-001
      endloop
   endfacet
   facet normal 7.071068e-001 -7.071068e-001 0.000000e+000
      outer loop
         vertex 6.963255e-002 -1.624809e-001 1.265000e-001
         vertex 7.182870e-002 -1.602848e-001 1.250000e-001
         vertex 7.182870e-002 -1.602848e-001 1.265000e-001
      endloop
   endfacet
   facet normal 9.659263e-001 -2.588172e-001 0.000000e+000
      outer loop
         vertex 7.182870e-002 -1.602848e-001 1.265000e-001
         vertex 7.182870e-002 -1.602848e-001 1.250000e-001
         vertex 7.263254e-002 -1.572848e-001 1.250000e-001
      endloop
   endfacet
   facet normal 9.659263e-001 -2.588172e-001 0.000000e+000
      outer loop
         vertex 7.182870e-002 -1.602848e-001 1.265000e-001
         vertex 7.263254e-002 -1.572848e-001 1.250000e-001
         vertex 7.263254e-002 -1.572848e-001 1.265000e-001
      endloop
   endfacet
   facet normal 9.659262e-001 2.588178e-001 0.000000e+000
      outer loop
         vertex 7.263254e-002 -8.018475e-002 1.265000e-001
         vertex 7.263254e-002 -8.018475e-002 1.250000e-001
         vertex 7.182870e-002 -7.718475e-002 1.250000e-001
      endloop
   endfacet
   facet normal 9.659262e-001 2.588178e-001 0.000000e+000
      outer loop
         vertex 7.263254e-002 -8.018475e-002 1.265000e-001
         vertex 7.182870e-002 -7.718475e-002 1.250000e-001
         vertex 7.182870e-002 -7.718475e-002 1.265000e-001
      endloop
   endfacet
   facet normal 7.071080e-001 7.071056e-001 0.000000e+000
      outer loop
         vertex 7.182870e-002 -7.718475e-002 1.265000e-001
         vertex 7.182870e-002 -7.718475e-002 1.250000e-001
         vertex 6.963255e-002 -7.498860e-002 1.250000e-001
      endloop
   endfacet
   facet normal 7.071080e-001 7.071056e-001 0.000000e+000
      outer loop
         vertex 7.182870e-002 -7.718475e-002 1.265000e-001
         vertex 6.963255e-002 -7.498860e-002 1.250000e-001
         vertex 6.963255e-002 -7.498860e-002 1.265000e-001
      endloop
   endfacet
   facet normal 2.588195e-001 9.659257e-001 0.000000e+000
      outer loop
         vertex 6.963255e-002 -7.498860e-002 1.265000e-001
         vertex 6.963255e-002 -7.498860e-002 1.250000e-001
         vertex 6.663255e-002 -7.418475e-002 1.250000e-001
      endloop
   endfacet
   facet normal 2.588195e-001 9.659257e-001 0.000000e+000
      outer loop
         vertex 6.963255e-002 -7.498860e-002 1.265000e-001
         vertex 6.663255e-002 -7.418475e-002 1.250000e-001
         vertex 6.663255e-002 -7.418475e-002 1.265000e-001
      endloop
   endfacet
   facet normal 9.659256e-001 2.588201e-001 -0.000000e+000
      outer loop
         vertex 3.550755e-002 -6.818475e-002 1.250000e-001
         vertex 3.550755e-002 -6.818475e-002 1.265000e-001
         vertex 3.631140e-002 -7.118475e-002 1.265000e-001
      endloop
   endfacet
   facet normal 9.659256e-001 2.588201e-001 6.382099e-017
      outer loop
         vertex 3.550755e-002 -6.818475e-002 1.250000e-001
         vertex 3.631140e-002 -7.118475e-002 1.265000e-001
         vertex 3.631140e-002 -7.118475e-002 1.250000e-001
      endloop
   endfacet
   facet normal 7.071068e-001 7.071068e-001 -0.000000e+000
      outer loop
         vertex 3.631140e-002 -7.118475e-002 1.250000e-001
         vertex 3.631140e-002 -7.118475e-002 1.265000e-001
         vertex 3.850755e-002 -7.338090e-002 1.265000e-001
      endloop
   endfacet
   facet normal 7.071068e-001 7.071068e-001 0.000000e+000
      outer loop
         vertex 3.631140e-002 -7.118475e-002 1.250000e-001
         vertex 3.850755e-002 -7.338090e-002 1.265000e-001
         vertex 3.850755e-002 -7.338090e-002 1.250000e-001
      endloop
   endfacet
   facet normal 2.588178e-001 9.659262e-001 -0.000000e+000
      outer loop
         vertex 3.850755e-002 -7.338090e-002 1.250000e-001
         vertex 3.850755e-002 -7.338090e-002 1.265000e-001
         vertex 4.150755e-002 -7.418475e-002 1.265000e-001
      endloop
   endfacet
   facet normal 2.588178e-001 9.659262e-001 0.000000e+000
      outer loop
         vertex 3.850755e-002 -7.338090e-002 1.250000e-001
         vertex 4.150755e-002 -7.418475e-002 1.265000e-001
         vertex 4.150755e-002 -7.418475e-002 1.250000e-001
      endloop
   endfacet
   facet normal 2.588201e-001 -9.659256e-001 0.000000e+000
      outer loop
         vertex 4.150755e-002 -4.448475e-002 1.250000e-001
         vertex 4.150755e-002 -4.448475e-002 1.265000e-001
         vertex 3.850755e-002 -4.528860e-002 1.265000e-001
      endloop
   endfacet
   facet normal 2.588201e-001 -9.659256e-001 6.382099e-017
      outer loop
         vertex 4.150755e-002 -4.448475e-002 1.250000e-001
         vertex 3.850755e-002 -4.528860e-002 1.265000e-001
         vertex 3.850755e-002 -4.528860e-002 1.250000e-001
      endloop
   endfacet
   facet normal 7.071056e-001 -7.071080e-001 0.000000e+000
      outer loop
         vertex 3.850755e-002 -4.528860e-002 1.250000e-001
         vertex 3.850755e-002 -4.528860e-002 1.265000e-001
         vertex 3.631140e-002 -4.748475e-002 1.265000e-001
      endloop
   endfacet
   facet normal 7.071056e-001 -7.071080e-001 0.000000e+000
      outer loop
         vertex 3.850755e-002 -4.528860e-002 1.250000e-001
         vertex 3.631140e-002 -4.748475e-002 1.265000e-001
         vertex 3.631140e-002 -4.748475e-002 1.250000e-001
      endloop
   endfacet
   facet normal 9.659256e-001 -2.588201e-001 0.000000e+000
      outer loop
         vertex 3.631140e-002 -4.748475e-002 1.250000e-001
         vertex 3.631140e-002 -4.748475e-002 1.265000e-001
         vertex 3.550755e-002 -5.048475e-002 1.265000e-001
      endloop
   endfacet
   facet normal 9.659256e-001 -2.588201e-001 -6.382099e-017
      outer loop
         vertex 3.631140e-002 -4.748475e-002 1.250000e-001
         vertex 3.550755e-002 -5.048475e-002 1.265000e-001
         vertex 3.550755e-002 -5.048475e-002 1.250000e-001
      endloop
   endfacet
   facet normal 2.588195e-001 -9.659257e-001 0.000000e+000
      outer loop
         vertex 6.663255e-002 -4.448475e-002 1.265000e-001
         vertex 6.663255e-002 -4.448475e-002 1.250000e-001
         vertex 6.963255e-002 -4.368090e-002 1.250000e-001
      endloop
   endfacet
   facet normal 2.588195e-001 -9.659257e-001 0.000000e+000
      outer loop
         vertex 6.663255e-002 -4.448475e-002 1.265000e-001
         vertex 6.963255e-002 -4.368090e-002 1.250000e-001
         vertex 6.963255e-002 -4.368090e-002 1.265000e-001
      endloop
   endfacet
   facet normal 7.071068e-001 -7.071068e-001 0.000000e+000
      outer loop
         vertex 6.963255e-002 -4.368090e-002 1.265000e-001
         vertex 6.963255e-002 -4.368090e-002 1.250000e-001
         vertex 7.182870e-002 -4.148475e-002 1.250000e-001
      endloop
   endfacet
   facet normal 7.071068e-001 -7.071068e-001 0.000000e+000
      outer loop
         vertex 6.963255e-002 -4.368090e-002 1.265000e-001
         vertex 7.182870e-002 -4.148475e-002 1.250000e-001
         vertex 7.182870e-002 -4.148475e-002 1.265000e-001
      endloop
   endfacet
   facet normal 9.659262e-001 -2.588178e-001 0.000000e+000
      outer loop
         vertex 7.182870e-002 -4.148475e-002 1.265000e-001
         vertex 7.182870e-002 -4.148475e-002 1.250000e-001
         vertex 7.263254e-002 -3.848476e-002 1.250000e-001
      endloop
   endfacet
   facet normal 9.659262e-001 -2.588178e-001 0.000000e+000
      outer loop
         vertex 7.182870e-002 -4.148475e-002 1.265000e-001
         vertex 7.263254e-002 -3.848476e-002 1.250000e-001
         vertex 7.263254e-002 -3.848476e-002 1.265000e-001
      endloop
   endfacet
   facet normal 9.659263e-001 2.588172e-001 0.000000e+000
      outer loop
         vertex 7.263254e-002 -2.078475e-002 1.265000e-001
         vertex 7.263254e-002 -2.078475e-002 1.250000e-001
         vertex 7.182870e-002 -1.778475e-002 1.250000e-001
      endloop
   endfacet
   facet normal 9.659263e-001 2.588172e-001 0.000000e+000
      outer loop
         vertex 7.263254e-002 -2.078475e-002 1.265000e-001
         vertex 7.182870e-002 -1.778475e-002 1.250000e-001
         vertex 7.182870e-002 -1.778475e-002 1.265000e-001
      endloop
   endfacet
   facet normal 7.071068e-001 7.071068e-001 0.000000e+000
      outer loop
         vertex 7.182870e-002 -1.778475e-002 1.265000e-001
         vertex 7.182870e-002 -1.778475e-002 1.250000e-001
         vertex 6.963255e-002 -1.558860e-002 1.250000e-001
      endloop
   endfacet
   facet normal 7.071068e-001 7.071068e-001 0.000000e+000
      outer loop
         vertex 7.182870e-002 -1.778475e-002 1.265000e-001
         vertex 6.963255e-002 -1.558860e-002 1.250000e-001
         vertex 6.963255e-002 -1.558860e-002 1.265000e-001
      endloop
   endfacet
   facet normal 2.588172e-001 9.659263e-001 0.000000e+000
      outer loop
         vertex 6.963255e-002 -1.558860e-002 1.265000e-001
         vertex 6.963255e-002 -1.558860e-002 1.250000e-001
         vertex 6.663255e-002 -1.478476e-002 1.250000e-001
      endloop
   endfacet
   facet normal 2.588172e-001 9.659263e-001 0.000000e+000
      outer loop
         vertex 6.963255e-002 -1.558860e-002 1.265000e-001
         vertex 6.663255e-002 -1.478476e-002 1.250000e-001
         vertex 6.663255e-002 -1.478476e-002 1.265000e-001
      endloop
   endfacet
   facet normal -2.588178e-001 9.659262e-001 0.000000e+000
      outer loop
         vertex 1.180755e-002 -1.478476e-002 1.265000e-001
         vertex 1.180755e-002 -1.478476e-002 1.250000e-001
         vertex 8.807550e-003 -1.558860e-002 1.250000e-001
      endloop
   endfacet
   facet normal -2.588178e-001 9.659262e-001 0.000000e+000
      outer loop
         vertex 1.180755e-002 -1.478476e-002 1.265000e-001
         vertex 8.807550e-003 -1.558860e-002 1.250000e-001
         vertex 8.807550e-003 -1.558860e-002 1.265000e-001
      endloop
   endfacet
   facet normal -7.071068e-001 7.071068e-001 0.000000e+000
      outer loop
         vertex 8.807550e-003 -1.558860e-002 1.265000e-001
         vertex 8.807550e-003 -1.558860e-002 1.250000e-001
         vertex 6.611402e-003 -1.778475e-002 1.250000e-001
      endloop
   endfacet
   facet normal -7.071068e-001 7.071068e-001 0.000000e+000
      outer loop
         vertex 8.807550e-003 -1.558860e-002 1.265000e-001
         vertex 6.611402e-003 -1.778475e-002 1.250000e-001
         vertex 6.611402e-003 -1.778475e-002 1.265000e-001
      endloop
   endfacet
   facet normal -9.659257e-001 2.588195e-001 0.000000e+000
      outer loop
         vertex 6.611402e-003 -1.778475e-002 1.265000e-001
         vertex 6.611402e-003 -1.778475e-002 1.250000e-001
         vertex 5.807552e-003 -2.078475e-002 1.250000e-001
      endloop
   endfacet
   facet normal -9.659257e-001 2.588195e-001 0.000000e+000
      outer loop
         vertex 6.611402e-003 -1.778475e-002 1.265000e-001
         vertex 5.807552e-003 -2.078475e-002 1.250000e-001
         vertex 5.807552e-003 -2.078475e-002 1.265000e-001
      endloop
   endfacet
   facet normal -9.659256e-001 -2.588201e-001 -0.000000e+000
      outer loop
         vertex 5.807552e-003 -9.788475e-002 1.265000e-001
         vertex 5.807552e-003 -9.788475e-002 1.250000e-001
         vertex 6.611402e-003 -1.008848e-001 1.250000e-001
      endloop
   endfacet
   facet normal -9.659256e-001 -2.588201e-001 6.382099e-017
      outer loop
         vertex 5.807552e-003 -9.788475e-002 1.265000e-001
         vertex 6.611402e-003 -1.008848e-001 1.250000e-001
         vertex 6.611402e-003 -1.008848e-001 1.265000e-001
      endloop
   endfacet
   facet normal -7.071080e-001 -7.071056e-001 -0.000000e+000
      outer loop
         vertex 6.611402e-003 -1.008848e-001 1.265000e-001
         vertex 6.611402e-003 -1.008848e-001 1.250000e-001
         vertex 8.807550e-003 -1.030809e-001 1.250000e-001
      endloop
   endfacet
   facet normal -7.071080e-001 -7.071056e-001 0.000000e+000
      outer loop
         vertex 6.611402e-003 -1.008848e-001 1.265000e-001
         vertex 8.807550e-003 -1.030809e-001 1.250000e-001
         vertex 8.807550e-003 -1.030809e-001 1.265000e-001
      endloop
   endfacet
   facet normal -2.588178e-001 -9.659262e-001 -0.000000e+000
      outer loop
         vertex 8.807550e-003 -1.030809e-001 1.265000e-001
         vertex 8.807550e-003 -1.030809e-001 1.250000e-001
         vertex 1.180755e-002 -1.038847e-001 1.250000e-001
      endloop
   endfacet
   facet normal -2.588178e-001 -9.659262e-001 0.000000e+000
      outer loop
         vertex 8.807550e-003 -1.030809e-001 1.265000e-001
         vertex 1.180755e-002 -1.038847e-001 1.250000e-001
         vertex 1.180755e-002 -1.038847e-001 1.265000e-001
      endloop
   endfacet
   facet normal -9.659257e-001 -2.588195e-001 0.000000e+000
      outer loop
         vertex 4.293255e-002 -1.098848e-001 1.250000e-001
         vertex 4.293255e-002 -1.098848e-001 1.265000e-001
         vertex 4.212870e-002 -1.068847e-001 1.265000e-001
      endloop
   endfacet
   facet normal -9.659257e-001 -2.588195e-001 0.000000e+000
      outer loop
         vertex 4.293255e-002 -1.098848e-001 1.250000e-001
         vertex 4.212870e-002 -1.068847e-001 1.265000e-001
         vertex 4.212870e-002 -1.068847e-001 1.250000e-001
      endloop
   endfacet
   facet normal -7.071068e-001 -7.071068e-001 0.000000e+000
      outer loop
         vertex 4.212870e-002 -1.068847e-001 1.250000e-001
         vertex 4.212870e-002 -1.068847e-001 1.265000e-001
         vertex 3.993255e-002 -1.046886e-001 1.265000e-001
      endloop
   endfacet
   facet normal -7.071068e-001 -7.071068e-001 0.000000e+000
      outer loop
         vertex 4.212870e-002 -1.068847e-001 1.250000e-001
         vertex 3.993255e-002 -1.046886e-001 1.265000e-001
         vertex 3.993255e-002 -1.046886e-001 1.250000e-001
      endloop
   endfacet
   facet normal -2.588201e-001 -9.659256e-001 0.000000e+000
      outer loop
         vertex 3.993255e-002 -1.046886e-001 1.250000e-001
         vertex 3.993255e-002 -1.046886e-001 1.265000e-001
         vertex 3.693255e-002 -1.038847e-001 1.265000e-001
      endloop
   endfacet
   facet normal -2.588201e-001 -9.659256e-001 -6.382099e-017
      outer loop
         vertex 3.993255e-002 -1.046886e-001 1.250000e-001
         vertex 3.693255e-002 -1.038847e-001 1.265000e-001
         vertex 3.693255e-002 -1.038847e-001 1.250000e-001
      endloop
   endfacet
   facet normal -2.588178e-001 9.659262e-001 0.000000e+000
      outer loop
         vertex 3.693255e-002 -1.335848e-001 1.250000e-001
         vertex 3.693255e-002 -1.335848e-001 1.265000e-001
         vertex 3.993255e-002 -1.327809e-001 1.265000e-001
      endloop
   endfacet
   facet normal -2.588178e-001 9.659262e-001 0.000000e+000
      outer loop
         vertex 3.693255e-002 -1.335848e-001 1.250000e-001
         vertex 3.993255e-002 -1.327809e-001 1.265000e-001
         vertex 3.993255e-002 -1.327809e-001 1.250000e-001
      endloop
   endfacet
   facet normal -7.071092e-001 7.071044e-001 0.000000e+000
      outer loop
         vertex 3.993255e-002 -1.327809e-001 1.250000e-001
         vertex 3.993255e-002 -1.327809e-001 1.265000e-001
         vertex 4.212870e-002 -1.305847e-001 1.265000e-001
      endloop
   endfacet
   facet normal -7.071092e-001 7.071044e-001 -1.276421e-016
      outer loop
         vertex 3.993255e-002 -1.327809e-001 1.250000e-001
         vertex 4.212870e-002 -1.305847e-001 1.265000e-001
         vertex 4.212870e-002 -1.305847e-001 1.250000e-001
      endloop
   endfacet
   facet normal -9.659254e-001 2.588207e-001 0.000000e+000
      outer loop
         vertex 4.212870e-002 -1.305847e-001 1.250000e-001
         vertex 4.212870e-002 -1.305847e-001 1.265000e-001
         vertex 4.293255e-002 -1.275848e-001 1.265000e-001
      endloop
   endfacet
   facet normal -9.659254e-001 2.588207e-001 0.000000e+000
      outer loop
         vertex 4.212870e-002 -1.305847e-001 1.250000e-001
         vertex 4.293255e-002 -1.275848e-001 1.265000e-001
         vertex 4.293255e-002 -1.275848e-001 1.250000e-001
      endloop
   endfacet
   facet normal 9.659257e-001 2.588196e-001 -0.000000e+000
      outer loop
         vertex -4.616745e-002 -1.275848e-001 1.250000e-001
         vertex -4.616745e-002 -1.275848e-001 1.265000e-001
         vertex -4.536360e-002 -1.305847e-001 1.265000e-001
      endloop
   endfacet
   facet normal 9.659257e-001 2.588196e-001 6.382086e-017
      outer loop
         vertex -4.616745e-002 -1.275848e-001 1.250000e-001
         vertex -4.536360e-002 -1.305847e-001 1.265000e-001
         vertex -4.536360e-002 -1.305847e-001 1.250000e-001
      endloop
   endfacet
   facet normal 7.071086e-001 7.071050e-001 -0.000000e+000
      outer loop
         vertex -4.536360e-002 -1.305847e-001 1.250000e-001
         vertex -4.536360e-002 -1.305847e-001 1.265000e-001
         vertex -4.316745e-002 -1.327809e-001 1.265000e-001
      endloop
   endfacet
   facet normal 7.071086e-001 7.071050e-001 0.000000e+000
      outer loop
         vertex -4.536360e-002 -1.305847e-001 1.250000e-001
         vertex -4.316745e-002 -1.327809e-001 1.265000e-001
         vertex -4.316745e-002 -1.327809e-001 1.250000e-001
      endloop
   endfacet
   facet normal 2.588175e-001 9.659262e-001 -0.000000e+000
      outer loop
         vertex -4.316745e-002 -1.327809e-001 1.250000e-001
         vertex -4.316745e-002 -1.327809e-001 1.265000e-001
         vertex -4.016745e-002 -1.335848e-001 1.265000e-001
      endloop
   endfacet
   facet normal 2.588175e-001 9.659262e-001 -6.382102e-017
      outer loop
         vertex -4.316745e-002 -1.327809e-001 1.250000e-001
         vertex -4.016745e-002 -1.335848e-001 1.265000e-001
         vertex -4.016745e-002 -1.335848e-001 1.250000e-001
      endloop
   endfacet
   facet normal 2.588198e-001 -9.659256e-001 0.000000e+000
      outer loop
         vertex -4.016745e-002 -1.038847e-001 1.250000e-001
         vertex -4.016745e-002 -1.038847e-001 1.265000e-001
         vertex -4.316745e-002 -1.046886e-001 1.265000e-001
      endloop
   endfacet
   facet normal 2.588198e-001 -9.659256e-001 -6.382105e-017
      outer loop
         vertex -4.016745e-002 -1.038847e-001 1.250000e-001
         vertex -4.316745e-002 -1.046886e-001 1.265000e-001
         vertex -4.316745e-002 -1.046886e-001 1.250000e-001
      endloop
   endfacet
   facet normal 7.071062e-001 -7.071074e-001 0.000000e+000
      outer loop
         vertex -4.316745e-002 -1.046886e-001 1.250000e-001
         vertex -4.316745e-002 -1.046886e-001 1.265000e-001
         vertex -4.536360e-002 -1.068847e-001 1.265000e-001
      endloop
   endfacet
   facet normal 7.071062e-001 -7.071074e-001 1.276419e-016
      outer loop
         vertex -4.316745e-002 -1.046886e-001 1.250000e-001
         vertex -4.536360e-002 -1.068847e-001 1.265000e-001
         vertex -4.536360e-002 -1.068847e-001 1.250000e-001
      endloop
   endfacet
   facet normal 9.659260e-001 -2.588183e-001 0.000000e+000
      outer loop
         vertex -4.536360e-002 -1.068847e-001 1.250000e-001
         vertex -4.536360e-002 -1.068847e-001 1.265000e-001
         vertex -4.616745e-002 -1.098848e-001 1.265000e-001
      endloop
   endfacet
   facet normal 9.659260e-001 -2.588183e-001 0.000000e+000
      outer loop
         vertex -4.536360e-002 -1.068847e-001 1.250000e-001
         vertex -4.616745e-002 -1.098848e-001 1.265000e-001
         vertex -4.616745e-002 -1.098848e-001 1.250000e-001
      endloop
   endfacet
   facet normal 2.588181e-001 -9.659261e-001 0.000000e+000
      outer loop
         vertex -1.504245e-002 -1.038847e-001 1.265000e-001
         vertex -1.504245e-002 -1.038847e-001 1.250000e-001
         vertex -1.204245e-002 -1.030809e-001 1.250000e-001
      endloop
   endfacet
   facet normal 2.588181e-001 -9.659261e-001 0.000000e+000
      outer loop
         vertex -1.504245e-002 -1.038847e-001 1.265000e-001
         vertex -1.204245e-002 -1.030809e-001 1.250000e-001
         vertex -1.204245e-002 -1.030809e-001 1.265000e-001
      endloop
   endfacet
   facet normal 7.071068e-001 -7.071068e-001 0.000000e+000
      outer loop
         vertex -1.204245e-002 -1.030809e-001 1.265000e-001
         vertex -1.204245e-002 -1.030809e-001 1.250000e-001
         vertex -9.846297e-003 -1.008848e-001 1.250000e-001
      endloop
   endfacet
   facet normal 7.071068e-001 -7.071068e-001 0.000000e+000
      outer loop
         vertex -1.204245e-002 -1.030809e-001 1.265000e-001
         vertex -9.846297e-003 -1.008848e-001 1.250000e-001
         vertex -9.846297e-003 -1.008848e-001 1.265000e-001
      endloop
   endfacet
   facet normal 9.659256e-001 -2.588201e-001 0.000000e+000
      outer loop
         vertex -9.846297e-003 -1.008848e-001 1.265000e-001
         vertex -9.846297e-003 -1.008848e-001 1.250000e-001
         vertex -9.042447e-003 -9.788475e-002 1.250000e-001
      endloop
   endfacet
   facet normal 9.659256e-001 -2.588201e-001 -6.382099e-017
      outer loop
         vertex -9.846297e-003 -1.008848e-001 1.265000e-001
         vertex -9.042447e-003 -9.788475e-002 1.250000e-001
         vertex -9.042447e-003 -9.788475e-002 1.265000e-001
      endloop
   endfacet
   facet normal 9.659256e-001 2.588201e-001 0.000000e+000
      outer loop
         vertex -9.042447e-003 -8.018475e-002 1.265000e-001
         vertex -9.042447e-003 -8.018475e-002 1.250000e-001
         vertex -9.846297e-003 -7.718475e-002 1.250000e-001
      endloop
   endfacet
   facet normal 9.659256e-001 2.588201e-001 6.382099e-017
      outer loop
         vertex -9.042447e-003 -8.018475e-002 1.265000e-001
         vertex -9.846297e-003 -7.718475e-002 1.250000e-001
         vertex -9.846297e-003 -7.718475e-002 1.265000e-001
      endloop
   endfacet
   facet normal 7.071068e-001 7.071068e-001 0.000000e+000
      outer loop
         vertex -9.846297e-003 -7.718475e-002 1.265000e-001
         vertex -9.846297e-003 -7.718475e-002 1.250000e-001
         vertex -1.204245e-002 -7.498860e-002 1.250000e-001
      endloop
   endfacet
   facet normal 7.071068e-001 7.071068e-001 0.000000e+000
      outer loop
         vertex -9.846297e-003 -7.718475e-002 1.265000e-001
         vertex -1.204245e-002 -7.498860e-002 1.250000e-001
         vertex -1.204245e-002 -7.498860e-002 1.265000e-001
      endloop
   endfacet
   facet normal 2.588204e-001 9.659255e-001 0.000000e+000
      outer loop
         vertex -1.204245e-002 -7.498860e-002 1.265000e-001
         vertex -1.204245e-002 -7.498860e-002 1.250000e-001
         vertex -1.504245e-002 -7.418475e-002 1.250000e-001
      endloop
   endfacet
   facet normal 2.588204e-001 9.659255e-001 0.000000e+000
      outer loop
         vertex -1.204245e-002 -7.498860e-002 1.265000e-001
         vertex -1.504245e-002 -7.418475e-002 1.250000e-001
         vertex -1.504245e-002 -7.418475e-002 1.265000e-001
      endloop
   endfacet
   facet normal -2.588201e-001 9.659256e-001 0.000000e+000
      outer loop
         vertex -6.986745e-002 -7.418475e-002 1.265000e-001
         vertex -6.986745e-002 -7.418475e-002 1.250000e-001
         vertex -7.286745e-002 -7.498860e-002 1.250000e-001
      endloop
   endfacet
   facet normal -2.588201e-001 9.659256e-001 6.382099e-017
      outer loop
         vertex -6.986745e-002 -7.418475e-002 1.265000e-001
         vertex -7.286745e-002 -7.498860e-002 1.250000e-001
         vertex -7.286745e-002 -7.498860e-002 1.265000e-001
      endloop
   endfacet
   facet normal -7.071068e-001 7.071068e-001 0.000000e+000
      outer loop
         vertex -7.286745e-002 -7.498860e-002 1.265000e-001
         vertex -7.286745e-002 -7.498860e-002 1.250000e-001
         vertex -7.506360e-002 -7.718475e-002 1.250000e-001
      endloop
   endfacet
   facet normal -7.071068e-001 7.071068e-001 0.000000e+000
      outer loop
         vertex -7.286745e-002 -7.498860e-002 1.265000e-001
         vertex -7.506360e-002 -7.718475e-002 1.250000e-001
         vertex -7.506360e-002 -7.718475e-002 1.265000e-001
      endloop
   endfacet
   facet normal -9.659256e-001 2.588201e-001 0.000000e+000
      outer loop
         vertex -7.506360e-002 -7.718475e-002 1.265000e-001
         vertex -7.506360e-002 -7.718475e-002 1.250000e-001
         vertex -7.586745e-002 -8.018475e-002 1.250000e-001
      endloop
   endfacet
   facet normal -9.659256e-001 2.588201e-001 -6.382099e-017
      outer loop
         vertex -7.506360e-002 -7.718475e-002 1.265000e-001
         vertex -7.586745e-002 -8.018475e-002 1.250000e-001
         vertex -7.586745e-002 -8.018475e-002 1.265000e-001
      endloop
   endfacet
endsolid